<?xml version="1.0" encoding="UTF-8" standalone="no"?>
<!-- Created with Inkscape (http://www.inkscape.org/) -->

<svg
   width="121.54196mm"
   height="121.75691mm"
   viewBox="0 0 121.54196 121.75691"
   version="1.1"
   id="svg1"
   xml:space="preserve"
   xmlns="http://www.w3.org/2000/svg"
   xmlns:svg="http://www.w3.org/2000/svg"><defs
     id="defs1" /><g
     id="layer1"
     transform="translate(-36.982239,-55.008529)"><g
       id="g29"><path
         d="M 36.982239,55.008529 V 176.76544 h 46.779057 a 1.8,1.8 0 0 1 -0.08113,-0.19586 1.8,1.8 0 0 1 1.79989,-1.79989 1.8,1.8 0 0 1 1.79989,1.79989 1.8,1.8 0 0 1 -0.08113,0.19586 h 20.509854 a 1.8,1.8 0 0 1 -0.016,-0.0388 1.8,1.8 0 0 1 1.79989,-1.79989 1.8,1.8 0 0 1 1.79989,1.79989 1.8,1.8 0 0 1 -0.016,0.0388 h 47.24776 V 86.755945 h -3.45302 v -4.924247 h 3.45302 V 55.008529 Z M 96.963074,96.39515 A 18.077,18.077097 0 0 1 115.04001,114.47208 18.077,18.077097 0 0 1 96.963074,132.54902 18.077,18.077097 0 0 1 78.886141,114.47208 18.077,18.077097 0 0 1 96.963074,96.39515 Z M 119.0811,117.398 a 3.0079999,3.0080161 0 0 1 3.00809,3.00809 3.0079999,3.0080161 0 0 1 -3.00809,3.00808 3.0079999,3.0080161 0 0 1 -3.00808,-3.00808 3.0079999,3.0080161 0 0 1 3.00808,-3.00809 z"
         style="display:inline;opacity:1;stroke-width:0.25;stroke-linecap:round;stroke-linejoin:round;stroke-miterlimit:1"
         id="path25" /><path
         d="M 96.963074,96.39515 A 18.077,18.077097 0 0 0 78.886141,114.47208 18.077,18.077097 0 0 0 96.963074,132.54902 18.077,18.077097 0 0 0 115.04001,114.47208 18.077,18.077097 0 0 0 96.963074,96.39515 Z m 0.26665,5.6441 a 12.7335,12.733503 0 0 1 12.733076,12.73307 12.7335,12.733503 0 0 1 -12.733076,12.73359 12.7335,12.733503 0 0 1 -12.73359,-12.73359 12.7335,12.733503 0 0 1 12.73359,-12.73307 z"
         style="display:inline;opacity:1;fill:#4d4d4d;stroke-width:0.236354;stroke-linecap:round;stroke-linejoin:round;stroke-miterlimit:1"
         id="path22" /><path
         d="m 119.08111,123.41417 a 3.0079999,3.0080161 0 0 0 3.00808,-3.00809 3.0079999,3.0080161 0 0 0 -3.00808,-3.00808 3.0079999,3.0080161 0 0 0 -3.00809,3.00808 3.0079999,3.0080161 0 0 0 3.00809,3.00809 z m 0.11472,-2.70991 a 1.2603227,1.260323 0 0 1 -1.26039,-1.26039 1.2603227,1.260323 0 0 1 1.26039,-1.26039 1.2603227,1.260323 0 0 1 1.26039,1.26039 1.2603227,1.260323 0 0 1 -1.26039,1.26039 z"
         style="display:inline;opacity:1;fill:#4d4d4d;stroke-width:0.0393295;stroke-linecap:round;stroke-linejoin:round;stroke-miterlimit:1"
         id="path27" /><path
         id="path12"
         style="display:inline;opacity:1;fill:#4d4d4d;fill-opacity:1;stroke:#000000;stroke-width:0.277643;stroke-linecap:round;stroke-linejoin:round;stroke-miterlimit:1"
         d="m 97.709281,139.56926 a 5.9191113,5.9191113 0 0 0 -5.900415,5.65288 h -0.01499 v 0.20878 a 5.9191113,5.9191113 0 0 0 -0.0041,0.0574 5.9191113,5.9191113 0 0 0 0.0041,0.0574 v 20.09179 h 0.0021 a 5.9191113,5.9191113 0 0 0 -0.0062,0.0889 5.9191113,5.9191113 0 0 0 5.919535,5.91902 5.9191113,5.9191113 0 0 0 5.919019,-5.91902 5.9191113,5.9191113 0 0 0 -0.004,-0.16588 v -20.0148 a 5.9191113,5.9191113 0 0 0 0.004,-0.0574 5.9191113,5.9191113 0 0 0 -0.004,-0.16588 v -0.10026 h -0.003 a 5.9191113,5.9191113 0 0 0 -5.912299,-5.65288 z" /><path
         d="M 97.229724,100.93906 A 13.833496,13.8335 0 0 0 83.395943,114.77232 13.833496,13.8335 0 0 0 97.229724,128.6061 13.833496,13.8335 0 0 0 111.06299,114.77232 13.833496,13.8335 0 0 0 97.229724,100.93906 Z m 0,1.10019 a 12.7335,12.733503 0 0 1 12.733076,12.73307 12.7335,12.733503 0 0 1 -12.733076,12.73359 12.7335,12.733503 0 0 1 -12.73359,-12.73359 12.7335,12.733503 0 0 1 12.73359,-12.73307 z"
         style="display:inline;opacity:0.5;fill:#b3b3b3;stroke-width:0.180871;stroke-linecap:round;stroke-linejoin:round;stroke-miterlimit:1"
         id="path24" /><path
         style="font-size:36.0502px;line-height:1.25;font-family:'Super Funky';-inkscape-font-specification:'Super Funky, Normal';font-variant-ligatures:none;text-align:center;text-anchor:middle;display:inline;fill:#e5771e;fill-opacity:1;stroke-width:0.636786"
         d="m 62.795738,40.094668 c -9.53e-4,-1.345974 0.324706,-2.427436 0.975995,-3.244888 0.651219,-0.817367 1.471816,-1.454257 2.460444,-1.910801 1.012639,-0.456543 2.10915,-0.756618 3.288323,-0.900614 1.179153,-0.143993 2.297687,-0.215865 3.355155,-0.215854 0.76912,9e-6 1.705585,0.05992 2.809529,0.179588 1.104229,0.09571 2.17055,0.322997 3.199397,0.681609 1.028887,0.358627 1.900125,0.860588 2.615465,1.506316 0.739298,0.645658 1.106191,1.507216 1.103493,2.585921 -0.0029,1.174883 -0.374062,2.075156 -1.117899,2.700913 -0.719648,0.601531 -1.65518,0.903591 -2.807547,0.905615 -0.768189,0.0014 -1.53649,-0.08144 -2.304915,-0.248394 -0.768448,-0.190981 -1.53674,-0.285941 -2.304909,-0.284842 -0.696153,9.95e-4 -1.271993,0.242056 -1.727252,0.723351 -0.455317,0.457275 -0.682115,1.070474 -0.680428,1.839746 7.91e-4,0.360584 0.07343,0.636954 0.217877,0.829071 0.168405,0.168047 0.372709,0.28796 0.612916,0.359731 0.240207,0.07177 0.504341,0.107438 0.792403,0.106997 0.288061,-4.41e-4 0.576125,-8.93e-4 0.864193,-0.0014 0.600141,-9.68e-4 1.188233,-0.026 1.764278,-0.0751 0.576045,-0.0491 1.152149,-0.07419 1.728325,-0.07529 0.288089,-5.52e-4 0.600213,0.01086 0.936382,0.03422 0.360175,0.02331 0.684462,0.09474 0.972865,0.214305 0.312351,0.09547 0.564842,0.251134 0.757469,0.466987 0.216635,0.215798 0.325461,0.51593 0.32643,0.900386 9.69e-4,0.38446 -0.106348,0.685045 -0.321954,0.901793 -0.191647,0.192663 -0.431456,0.337384 -0.719406,0.434156 -0.287949,0.09677 -0.600003,0.157553 -0.93614,0.18233 -0.336137,0.02477 -0.636276,0.03744 -0.900415,0.03801 -0.36018,7.7e-4 -0.816505,-0.03432 -1.36889,-0.105322 -0.528385,-0.07105 -1.068673,-0.106085 -1.620888,-0.105098 -0.696277,0.0012 -1.296239,0.12241 -1.800022,0.363571 -0.503822,0.217124 -0.755143,0.686187 -0.754307,1.407138 9.48e-4,0.816906 0.217771,1.741878 0.650629,2.773453 0.454871,1.00313 0.951877,2.078967 1.479972,3.199594 0.55445,1.101534 1.061404,2.212112 1.524325,3.333822 0.462652,1.12106 0.712178,2.205188 0.748396,3.252321 -3e-6,-2.75e-4 0.0017,0.143101 0.0017,0.142826 0.01191,0.999609 -0.214889,1.892115 -0.683977,2.679389 -0.444425,0.810862 -1.04656,1.504135 -1.809806,2.081181 -0.738868,0.576741 -1.578409,1.024784 -2.519787,1.343943 -0.916896,0.318845 -1.838862,0.483967 -2.763903,0.493856 -1.095532,0.01171 -2.08472,-0.168937 -2.964441,-0.543762 -0.879467,-0.350936 -1.636036,-0.847905 -2.269335,-1.491531 -0.60907,-0.643762 -1.082173,-1.409615 -1.420436,-2.297259 -0.314097,-0.887615 -0.469257,-1.860796 -0.467206,-2.918272 0.0021,-1.081375 0.137128,-2.13953 0.403688,-3.172942 0.290584,-1.033475 0.604999,-2.067272 0.942636,-3.100539 0.337719,-1.03352 0.638739,-2.066736 0.903103,-3.100295 0.288355,-1.057542 0.431936,-2.139053 0.430725,-3.244729 -9.21e-4,-0.841254 -0.08626,-1.658445 -0.255818,-2.451578 -0.169594,-0.793274 -0.351366,-1.586082 -0.545294,-2.379302 -0.193857,-0.792928 -0.375865,-1.586256 -0.545488,-2.379139 -0.169646,-0.792981 -0.255045,-1.598137 -0.255624,-2.415226 z m 29.569085,-5.48672 c 1.657804,-5.37e-4 3.194724,0.05845 4.610142,0.176692 1.415456,0.118236 2.636958,0.343294 3.664795,0.675094 1.05231,0.308061 1.87458,0.758557 2.46897,1.352379 0.59435,0.593772 0.88878,1.354938 0.88582,2.285015 -0.003,0.882684 -0.17042,1.599347 -0.50609,2.150211 -0.31158,0.526727 -0.74266,0.94653 -1.29413,1.259249 -0.52742,0.312628 -1.13895,0.541894 -1.83485,0.687651 -0.67187,0.145681 -1.367774,0.279508 -2.087735,0.401449 -0.69595,0.12187 -1.379843,0.25571 -2.051699,0.401535 -0.671857,0.145824 -1.259378,0.375341 -1.762552,0.688653 -0.215692,0.120569 -0.43117,0.301115 -0.646413,0.541665 -0.215331,0.21656 -0.322501,0.456811 -0.321479,0.720718 0.001,0.263908 0.07393,0.479603 0.218726,0.647064 0.168714,0.143394 0.361366,0.262702 0.577953,0.357925 0.216485,0.07124 0.44489,0.118435 0.685207,0.141598 0.264335,0.02308 0.492599,0.03429 0.684771,0.03362 0.62457,-0.0022 1.297076,-0.0285 2.017531,-0.07902 0.720463,-0.05052 1.381688,0.07895 1.983985,0.388182 0.361425,0.190344 0.747295,0.464356 1.157925,0.821967 0.43464,0.357495 0.65354,0.775537 0.65664,1.254115 0.003,0.502506 -0.18634,0.897927 -0.56909,1.186619 -0.35869,0.288571 -0.82595,0.529789 -1.401812,0.723701 -0.551973,0.169894 -1.152186,0.328064 -1.800606,0.474496 -0.64859,0.122528 -1.260961,0.268783 -1.837163,0.43878 -0.552299,0.145979 -1.020138,0.339379 -1.403532,0.580185 -0.359308,0.240674 -0.537713,0.576159 -0.534741,1.006006 0.0051,0.740295 0.274277,1.263381 0.80696,1.570209 0.532407,0.282972 1.11218,0.422397 1.738487,0.418746 0.578153,-0.0034 1.143825,-0.05431 1.696815,-0.152719 0.577096,-0.09855 1.142133,-0.197052 1.69508,-0.29547 0.552682,-0.122196 1.105582,-0.220608 1.658772,-0.295254 0.577,-0.09856 1.1545,-0.149574 1.73267,-0.153098 0.9396,-0.0057 1.70035,0.144012 2.28347,0.448628 0.60688,0.280758 1.08335,0.680365 1.43111,1.198121 0.34781,0.517842 0.59015,1.129381 0.72973,1.834181 0.13902,0.681624 0.22232,1.430648 0.25384,2.248538 0.0747,1.937235 -0.29044,3.465556 -1.13127,4.602267 -0.81701,1.137118 -1.90818,2.009505 -3.29567,2.626096 -1.36261,0.616017 -2.89392,1.019372 -4.596746,1.209641 -1.675792,0.212621 -3.313415,0.333755 -4.909073,0.361498 -1.399254,0.02433 -2.759461,-0.06752 -4.075318,-0.277936 -1.291515,-0.210834 -2.456227,-0.587834 -3.487844,-1.134035 -1.007383,-0.546635 -1.821565,-1.297704 -2.437559,-2.256454 -0.615331,-0.935429 -0.936547,-2.13644 -0.961088,-3.607188 -0.01701,-1.0194 0.153961,-1.936951 0.507575,-2.74804 0.353481,-0.835118 0.733099,-1.64814 1.137383,-2.437579 0.428452,-0.789731 0.821394,-1.603944 1.178555,-2.44266 0.35704,-0.862595 0.533736,-1.833073 0.530164,-2.911815 -0.004,-1.222828 -0.127467,-2.314111 -0.370662,-3.273942 -0.219165,-0.959873 -0.462012,-1.859651 -0.728639,-2.699769 -0.266455,-0.839573 -0.521083,-1.668463 -0.762805,-2.483945 -0.217849,-0.839811 -0.327382,-1.728155 -0.327412,-2.663614 -3.5e-5,-1.103648 0.230181,-2.026514 0.689842,-2.769494 0.483745,-0.766896 1.112913,-1.389256 1.886251,-1.867755 0.773292,-0.478472 1.642665,-0.824912 2.606697,-1.039932 0.988024,-0.215024 1.975055,-0.322458 2.960112,-0.322777 z m 28.376097,0.5946 c 0.5307,0.0019 1.1206,0.02238 1.76766,0.0616 0.0983,0.0038 0.19788,0.0079 0.2988,0.01238 0.80125,0.03415 1.61574,0.114685 2.44398,0.237283 0.83275,0.0991 1.627,0.265383 2.3835,0.493489 0.78497,0.20468 1.45763,0.496744 2.0248,0.873934 0.5715,0.355105 1.00089,0.809232 1.30193,1.366928 0.32738,0.534145 0.45434,1.188229 0.39615,1.972331 -0.0835,1.124697 -0.32647,1.97159 -0.78604,2.558792 -0.4333,0.581261 -1.2478,0.930276 -2.45346,1.037774 -0.55649,0.04962 -1.07703,0.01507 -1.562,-0.105339 -0.48451,-0.143585 -0.969,-0.300517 -1.45305,-0.470989 -0.46084,-0.172382 -0.93362,-0.322248 -1.41849,-0.449236 -0.48433,-0.150521 -1.00576,-0.205988 -1.56435,-0.164395 -0.1,0.0074 -0.19844,0.02013 -0.29539,0.03809 -0.39936,0.04306 -0.77191,0.188669 -1.11543,0.436808 -0.40014,0.2816 -0.60176,0.683884 -0.603,1.206536 -0.001,0.451332 0.31877,0.881336 0.95664,1.289319 0.22935,0.141875 0.47726,0.286663 0.74367,0.434324 0.52807,0.22621 1.12567,0.454077 1.79115,0.681376 1.05318,0.32587 2.14545,0.67432 3.33468,1.057313 1.20358,0.377697 2.31001,0.854063 3.32495,1.422496 1.03777,0.56549 1.88524,1.252719 2.5471,2.04825 0.68492,0.792357 1.01662,1.75035 1.01083,2.855668 -0.009,1.743385 -0.34312,3.153354 -0.93757,4.396315 -0.58945,1.23249 -1.42288,2.341932 -2.47353,3.433925 -1.02635,1.084018 -2.35982,2.279118 -3.8879,3.428551 -0.88219,0.675502 -1.85946,1.366782 -2.91432,2.025187 -0.88927,0.158834 -1.84347,0.286319 -2.85168,0.37674 -1.48925,0.133563 -3.00446,0.04439 -4.47729,-0.315155 -1.47717,-0.360605 -2.77909,-0.954126 -3.91274,-1.802491 -0.38818,-0.290492 -0.74817,-0.605056 -1.08098,-0.943327 0,0 0,-10e-7 0,-10e-7 -0.67333,-0.6655 -1.2471,-1.405835 -1.72102,-2.222821 -0.72282,-1.267108 -1.10027,-2.654163 -1.14011,-4.159675 -0.0168,-0.635068 0.0652,-1.284447 0.2452,-1.947613 0.17949,-0.68675 0.45872,-1.30493 0.83577,-1.852843 0.36273,-0.550455 0.81706,-0.992112 1.36206,-1.324164 0.0196,-0.01277 0.0393,-0.02538 0.0591,-0.03781 0.5325,-0.357889 1.14462,-0.536923 1.83575,-0.538055 0.66888,-0.0011 1.30465,0.152133 1.90889,0.458 0.62617,0.282215 1.24051,0.598596 1.8444,0.948738 0.6038,0.350086 1.21776,0.67478 1.84216,0.974298 0.64591,0.276019 1.31092,0.410409 1.99342,0.405704 1.0129,-0.007 1.50993,-0.321283 1.4973,-0.947461 -0.009,-0.440546 -0.30165,-0.846734 -0.87932,-1.219092 -0.57757,-0.372301 -1.31003,-0.769933 -2.19772,-1.193145 -0.86664,-0.423696 -1.80999,-0.895659 -2.83562,-1.418879 -1.00281,-0.522833 -1.95304,-1.142811 -2.84968,-1.860631 -0.87481,-0.741718 -1.60605,-1.604068 -2.19293,-2.587545 -0.0322,-0.05529 -0.0636,-0.11108 -0.094,-0.167376 0,0 0,0 0,0 -0.56434,-0.963947 -0.85002,-2.07982 -0.85449,-3.344049 -0.003,-0.788389 0.16395,-1.516915 0.50014,-2.18537 0.10207,-0.196191 0.21293,-0.386578 0.33258,-0.57117 0,0 0,0 0,0 0.28385,-0.463842 0.62211,-0.890121 1.01647,-1.279335 0.57337,-0.566866 1.23352,-1.061175 1.98434,-1.484964 0.75065,-0.423696 1.53336,-0.776518 2.34549,-1.059153 0.81171,-0.282493 1.61716,-0.494684 2.40735,-0.63563 0.81677,-0.164884 1.55908,-0.246826 2.21584,-0.244437 z m 27.71461,-0.621844 c 0.70628,-0.0049 1.48305,-0.0012 2.3329,0.01046 0.87338,0.01151 1.74495,0.04934 2.61479,0.112069 0.8714,0.0452 1.719,0.133491 2.54142,0.263765 0.82235,0.130263 1.56445,0.312874 2.22249,0.550104 0.78779,0.299585 1.36029,0.647648 1.70896,1.053703 0.007,0.0091 0.0149,0.01816 0.0222,0.02727 0.36971,0.413072 0.55597,0.984282 0.55319,1.733113 -0.003,0.813348 -0.20188,1.508261 -0.60015,2.061962 0,10e-7 0,10e-7 0,10e-7 -0.0176,0.0254 -0.0356,0.05055 -0.0539,0.07547 -0.4116,0.592399 -1.21783,0.915893 -2.42092,0.960888 -0.5629,0.02105 -1.06085,-0.02311 -1.49423,-0.132872 -0.4077,-0.110682 -0.78921,-0.23284 -1.1446,-0.366408 -0.32948,-0.155442 -0.65875,-0.289824 -0.98787,-0.403274 -0.30353,-0.114328 -0.6337,-0.165203 -0.99051,-0.152526 -0.30579,0.01086 -0.56328,0.113899 -0.77173,0.310372 -0.1825,0.17458 -0.34067,0.401582 -0.47381,0.681896 -0.10716,0.25819 -0.18895,0.548224 -0.24492,0.870428 -0.0303,0.321049 -0.0469,0.62143 -0.0499,0.899812 -0.0141,1.284869 0.22456,2.534254 0.70649,3.705849 0.48092,1.148033 1.01782,2.283653 1.60006,3.347651 0.58853,1.055827 1.11111,2.032472 1.59614,2.936812 0.48106,0.880357 0.71678,1.6942 0.71325,2.398569 -0.003,0.572578 -0.24573,0.993743 -0.7221,1.335138 -0.47435,0.339961 -1.11091,0.596081 -1.89492,0.820894 -0.74722,0.218162 -1.65268,0.411613 -2.64121,0.594579 -0.94618,0.179872 -2.02008,0.362353 -3.05549,0.518042 -1.05128,0.158076 -2.1352,0.299796 -3.1749,0.389802 -1.04668,0.09578 -2.01586,0.130893 -2.87592,0.06108 -0.86317,-0.07006 -1.58669,-0.247597 -2.14996,-0.57713 -0.53882,-0.333048 -0.83779,-0.825041 -0.88786,-1.514137 -0.001,-0.02877 -0.002,-0.05769 -0.003,-0.08675 -0.0279,-0.856698 0.20569,-1.840442 0.67167,-2.880461 0.47721,-1.011759 1.04345,-2.19393 1.59806,-3.327065 0.59749,-1.170011 1.12332,-2.370672 1.59022,-3.598362 0.49198,-1.248938 0.74016,-2.522241 0.76269,-3.809773 0.006,-0.359129 0.0139,-0.719053 0.0234,-1.076994 0.0348,-0.34847 0.0193,-0.661394 -0.0467,-0.93916 -0.0659,-0.277792 -0.22175,-0.486705 -0.46878,-0.627901 -0.22048,-0.163535 -0.58426,-0.236226 -1.09192,-0.21792 -0.40608,0.01464 -0.79059,0.09292 -1.15282,0.235673 -0.36226,0.142766 -0.7382,0.308251 -1.12735,0.496802 -0.36277,0.165845 -0.73724,0.321901 -1.12377,0.468055 -0.38652,0.146154 -0.80799,0.228571 -1.26494,0.246523 -0.5416,0.02128 -1.02119,-0.02506 -1.43845,-0.139506 -0.36981,-0.09412 -0.68627,-0.254927 -0.94772,-0.482529 -0.52768,-0.482392 -0.76812,-1.220617 -0.66733,-2.182999 0.0872,-0.83269 0.43596,-1.527192 1.03072,-2.081638 0.37745,-0.339095 0.80394,-0.63495 1.27637,-0.888961 0.3131,-0.15723 0.64393,-0.297797 0.99137,-0.422011 0.92242,-0.339892 1.92343,-0.591091 2.99461,-0.759472 1.09585,-0.168666 2.16289,-0.283365 3.20132,-0.34863 1.04327,-0.0843 2.02707,-0.128087 2.95134,-0.134533 -0.13337,9.3e-4 2.39741,-0.0167 2.26404,-0.01577 0,0 -5e-5,10e-7 -5e-5,10e-7 z m 19.47063,-0.240319 c 1.71384,0.0071 3.10752,0.277867 4.16331,0.859009 1.05495,0.563594 1.65582,1.374736 1.73758,2.46269 0.0409,0.544089 -0.0223,1.166045 -0.19528,1.871134 -0.17321,0.706046 -0.36702,1.470426 -0.58212,2.300058 -0.21542,0.808019 -0.42375,1.66081 -0.62425,2.559711 -0.20016,0.897407 -0.30193,1.81572 -0.30271,2.744575 -8.5e-4,1.013515 0.20106,1.928127 0.60712,2.749729 0.43188,0.823589 0.90048,1.612798 1.40788,2.366669 0.50642,0.752415 0.96202,1.491485 1.3606,2.196567 0.42369,0.706333 0.63969,1.431368 0.63118,2.106166 -0.002,0.0336 -0.003,0.06695 -0.005,0.100057 -0.16402,3.032884 -3.35497,2.285936 -8.17679,1.541568 -2.16642,-0.334443 -3.83303,-0.535787 -5.07669,-0.754166 -1.21988,-0.214031 -1.87452,-0.446238 -1.92439,-1.081447 0.001,-0.03181 0.003,-0.06446 0.004,-0.09793 0.0141,-0.369331 0.18931,-0.786164 0.52944,-1.20184 0.3658,-0.413975 0.74246,-0.891784 1.13193,-1.429785 0.41522,-0.551635 0.78982,-1.196656 1.12634,-1.942819 0.3616,-0.743832 0.54397,-1.684514 0.5475,-2.83968 0.003,-1.055582 -0.13476,-2.029668 -0.41355,-2.879828 -0.27923,-0.872649 -0.59577,-1.689479 -0.95223,-2.445258 -0.32933,-0.751174 -0.64953,-1.497511 -0.95318,-2.215572 -0.27954,-0.7413 -0.4183,-1.540686 -0.419,-2.384432 -0.001,-1.60767 0.56318,-2.723909 1.65134,-3.472975 1.10039,-0.758268 2.68493,-1.120686 4.72729,-1.112201 z m 8.87789,5.189437 c -0.0841,-1.620355 0.17333,-2.843597 0.78694,-3.725284 0.632,-0.89653 1.75136,-1.331427 3.44405,-1.323173 1.08516,0.0053 2.20709,0.276433 3.32699,0.844315 0.21379,0.10614 0.4197,0.221639 0.61718,0.346651 0,0 0,0 0,0 0.84961,0.557108 1.53074,1.299928 2.00847,2.240586 0.26533,0.545212 0.50124,1.180133 0.70172,1.914153 0.19881,0.712041 0.35809,1.471707 0.48153,2.283246 0.14651,0.789263 0.2688,1.596175 0.3721,2.411838 0.12805,0.800979 0.25907,1.544291 0.40317,2.256069 0.11944,0.503792 0.24968,1.018359 0.39154,1.543818 0.16594,0.505976 0.34341,0.955555 0.53316,1.351204 0.21353,0.398216 0.45117,0.732836 0.71268,1.005071 0.26135,0.27207 0.5476,0.428201 0.85782,0.467254 0.42962,0.05408 0.82567,-0.147124 1.18793,-0.614902 0.36239,-0.467942 0.69094,-1.081828 0.98494,-1.845392 0.29331,-0.761817 0.54145,-1.611228 0.73591,-2.534561 0.19498,-0.925801 0.32384,-1.790544 0.38333,-2.593016 0.0816,-1.053528 0.18908,-2.069417 0.30937,-3.184054 0.1158,-1.110291 0.27391,-2.044684 0.49533,-2.783232 0.0704,-0.262992 0.15736,-0.510653 0.26159,-0.743237 0.22063,-0.533844 0.5312,-0.989722 0.94775,-1.369763 0.5948,-0.570431 1.61961,-0.857127 3.09631,-0.853381 0.64085,0.0016 1.2667,0.09602 1.86765,0.28483 0.62059,0.165577 1.17103,0.436803 1.64206,0.815207 0.49464,0.3787 0.898,0.875292 1.20339,1.491662 0.3054,0.616385 0.47737,1.350381 0.5141,2.202702 0.058,1.345057 -0.11644,2.629842 -0.48904,3.824506 -0.37326,1.196773 -0.83871,2.323573 -1.38171,3.365762 -0.5206,1.042686 -1.05805,2.038271 -1.6024,2.971303 -0.52319,0.912999 -0.94489,1.77355 -1.26652,2.584511 -0.16205,0.475515 -0.3236,1.001647 -0.48788,1.582616 -0.14501,0.594633 -0.28118,1.165365 -0.43023,1.790885 -0.12297,0.590468 -0.26001,1.174786 -0.41246,1.745667 -0.13059,0.574142 -0.27544,1.092534 -0.43558,1.560009 -0.34243,0.950095 -0.74445,1.853428 -1.22379,2.676803 -0.48132,0.826771 -1.10894,1.478461 -1.88606,1.960976 -0.034,0.02196 -0.0683,0.0435 -0.103,0.06461 0,0 0,0 0,0 -0.73652,0.359507 -1.58862,0.492539 -2.52901,0.425752 -0.97565,-0.04734 -2.05402,-0.403569 -3.2548,-0.976438 -1.17743,-0.561734 -2.15033,-1.175337 -2.8528,-1.721864 -0.57302,-0.441929 -1.06255,-0.881214 -1.4603,-1.324188 -0.10069,-0.07175 -0.19691,-0.146731 -0.28875,-0.225372 -0.50702,-0.422135 -0.91558,-0.939306 -1.22611,-1.606466 -0.31133,-0.668891 -0.60431,-1.449802 -0.86448,-2.356731 -0.16683,-0.557407 -0.31268,-1.075962 -0.43763,-1.555104 -0.0987,-0.474096 -0.21231,-0.930106 -0.33867,-1.357203 -0.10109,-0.445009 -0.22809,-0.873576 -0.38032,-1.280027 -0.12692,-0.424963 -0.29184,-0.84944 -0.49465,-1.27074 -0.58797,-1.211078 -1.13483,-2.276361 -1.6724,-3.212591 -0.50369,-0.919901 -0.96912,-1.802323 -1.3763,-2.595664 -0.38551,-0.821057 -0.6988,-1.617372 -0.94226,-2.382482 -0.24479,-0.789603 -0.38159,-1.647629 -0.42986,-2.577142 z m 25.42744,22.211041 c 0.0702,-0.733546 0.29895,-1.439535 0.69391,-2.124768 0.41903,-0.70582 0.89071,-1.401192 1.42601,-2.08726 0.55868,-0.685558 1.12886,-1.345436 1.72533,-1.98565 0.61621,-0.636004 1.1436,-1.256003 1.57817,-1.847031 0.55684,-0.731508 1.00316,-1.469987 1.33761,-2.207746 0,0 0,0 0,0 0.097,-0.205673 0.18517,-0.410936 0.26441,-0.615755 0.39213,-0.975 0.67616,-1.929611 0.85159,-2.860166 0.17546,-0.930771 0.27826,-1.827274 0.3072,-2.687573 -0.0835,1.395914 0.23311,-3.905784 0.14957,-2.50987 0.0465,-0.788324 0.12489,-1.518154 0.23526,-2.186655 0.13426,-0.668855 0.38432,-1.266048 0.75209,-1.791195 0.41367,-0.59687 0.89722,-1.098122 1.4544,-1.503871 0.58111,-0.405754 1.19894,-0.739824 1.85593,-1.002368 0.68089,-0.262517 1.37675,-0.453397 2.08889,-0.572662 0.73602,-0.119242 1.46349,-0.178786 2.18224,-0.178562 1.05416,3.27e-4 2.03235,0.144082 2.9308,0.431497 0.92226,0.28738 1.73501,0.850117 2.42497,1.688449 0.34474,0.407265 0.6434,0.982076 0.89132,1.724911 0.27194,0.743245 0.52696,1.533387 0.76684,2.373025 0.26192,0.83386 0.52532,1.684145 0.78227,2.51846 0.2826,0.840208 0.5877,1.559287 0.91813,2.159942 0.49563,0.864562 1.02695,1.644567 1.59569,2.341435 0.56901,0.673016 1.13761,1.3329 1.70786,1.981787 0.56997,0.62448 1.11677,1.260991 1.63997,1.908967 0.54718,0.624114 1.02313,1.307874 1.42725,2.050535 0.40408,0.718563 0.72479,1.520787 0.96009,2.40438 0.259,0.882869 0.38576,1.898388 0.37316,3.037692 -0.0113,1.021568 -0.15891,1.967969 -0.4452,2.839436 -0.28631,0.871555 -0.72164,1.608078 -1.3043,2.211726 -0.55838,0.603791 -1.27529,1.073866 -2.14697,1.412071 -0.84725,0.338439 -1.83364,0.498626 -2.95169,0.483246 -1.41025,-0.0194 -2.56761,-0.289863 -3.47276,-0.809405 -0.90776,-0.49691 -1.63648,-1.118158 -2.19502,-1.866966 -0.55839,-0.748596 -1.01205,-1.55683 -1.3628,-2.425046 -0.32331,-0.858953 -0.64314,-1.690333 -0.93319,-2.436702 -0.2695,-0.754994 -0.55827,-1.384083 -0.86085,-1.882003 -0.27868,-0.522146 -0.64598,-0.7848 -1.10025,-0.787354 -0.0956,-5.37e-4 -0.20345,0.0107 -0.3234,0.03369 -0.096,0.02313 -0.18045,0.06999 -0.25333,0.140566 -0.65355,0.4697 -1.10699,1.092514 -1.36596,1.867388 -0.25919,0.775534 -0.45226,1.60453 -0.58688,2.490374 -0.13297,0.858507 -0.27817,1.73317 -0.43898,2.603827 -0.1631,0.897062 -0.49303,1.680973 -0.98647,2.355325 -0.49597,0.696846 -1.21238,1.247596 -2.13925,1.656319 -0.93032,0.43093 -2.20336,0.627424 -3.79864,0.596171 -0.34405,-0.0067 -0.67605,-0.02247 -0.99583,-0.04714 0,0 0,0 0,0 -1.94541,-0.564959 -3.40651,-1.39905 -4.37375,-2.402788 -1.10464,-1.165449 -1.46709,-2.595265 -1.28544,-4.492683 z M 216.2818,48.962384 c -0.003,0.35861 0.0776,0.669534 0.24217,0.932902 0.18839,0.263438 0.4249,0.479206 0.70955,0.647359 0.28486,0.144265 0.5938,0.264726 0.92683,0.361388 0.33323,0.07278 0.65487,0.10969 0.96487,0.110723 0.28617,9.53e-4 0.59648,-0.03385 0.93091,-0.104461 0.35827,-0.07053 0.68113,-0.189011 0.96856,-0.355497 0.31126,-0.166415 0.56314,-0.368954 0.75565,-0.60765 0.19251,-0.238695 0.29005,-0.537567 0.29268,-0.896644 0.002,-0.335132 -0.0784,-0.682549 -0.24267,-1.042167 -0.14038,-0.359565 -0.35245,-0.695384 -0.6362,-1.007407 -0.25993,-0.311971 -0.57989,-0.564174 -0.95982,-0.756615 -0.35612,-0.192387 -0.7367,-0.288997 -1.1417,-0.289884 -0.42882,-9.4e-4 -0.81058,0.09399 -1.14541,0.284746 -0.33482,0.190749 -0.63439,0.441375 -0.8988,0.751827 -0.2404,0.286574 -0.43355,0.609096 -0.57946,0.967504 -0.12188,0.334556 -0.18429,0.669176 -0.18716,1.003876 z m 19.56503,-7.909166 c -0.001,-1.031527 0.13634,-1.919762 0.41488,-2.662815 0.30257,-0.743393 0.71062,-1.354774 1.22771,-1.834242 0.51664,-0.5035 1.13036,-0.863 1.84435,-1.078762 0.73719,-0.239698 1.52566,-0.359523 2.36527,-0.359384 0.86357,1.44e-4 1.65862,0.132234 2.38314,0.396394 0.72408,0.240166 1.34123,0.588361 1.85001,1.044691 0.5088,0.456349 0.89682,0.996711 1.16362,1.621266 0.29058,0.600527 0.43589,1.249111 0.43627,1.945742 4.1e-4,0.74465 -0.16823,1.51337 -0.50517,2.305966 -0.31309,0.792789 -0.67486,1.633166 -1.08512,2.522021 -0.38614,0.864625 -0.74894,1.789522 -1.08748,2.774196 -0.31466,0.984805 -0.47357,2.041588 -0.47586,3.170385 -0.003,1.512912 0.31963,2.737509 0.96596,3.674236 0.64634,0.936709 1.49712,1.406222 2.551,1.408287 0.7905,0.0015 1.43715,-0.22519 1.9398,-0.680476 0.50263,-0.4793 0.98125,-1.006923 1.43614,-1.582895 0.47886,-0.575959 0.98189,-1.092016 1.50915,-1.548182 0.55123,-0.480163 1.24634,-0.720043 2.08527,-0.719644 1.27043,6.05e-4 2.25316,0.601634 2.94946,1.803381 0.72012,1.177451 1.08248,2.824248 1.08768,4.939011 0.01,3.869219 -1.20231,6.742338 -3.68073,8.594067 -2.48237,1.878501 -6.11542,2.771482 -10.88221,2.707685 -1.51193,-0.02024 -2.7996,-0.155946 -3.8574,-0.4045 -1.05999,-0.225337 -1.91395,-0.587513 -2.56534,-1.086759 -0.65305,-0.476087 -1.12694,-1.101166 -1.43085,-1.878558 -0.27951,-0.776625 -0.41356,-1.719073 -0.41029,-2.828559 0.003,-0.118059 0.006,-0.23618 0.008,-0.354336 0.0203,-0.897668 0.10663,-1.834119 0.26038,-2.807541 0.15334,-0.970884 0.30343,-1.964983 0.45039,-2.964342 0.17104,-1.02385 0.32919,-2.056325 0.47451,-3.083569 0.14557,-1.028995 0.21957,-2.024806 0.22259,-2.983972 0.003,-0.959543 -0.0889,-1.84806 -0.27621,-2.664557 -0.16326,-0.840398 -0.35005,-1.657419 -0.56078,-2.449948 0.15097,0.64029 -0.71284,-3.018021 -0.56187,-2.377731 -0.16411,-0.816692 -0.24553,-1.668399 -0.24662,-2.556556 z"
         id="text1"
         transform="matrix(0.5887254,0,0,1.5892088,3.2829313,3.5466025)"
         aria-label="FESTIVAL" /><path
         d="m 90.908529,99.799365 c 0.74573,0.09912 1.388431,0.436405 2.000632,1.044525 0.623548,0.58123 1.189883,1.33865 1.739599,2.24367 0.543148,0.89421 1.080545,1.9287 1.598022,3.00911 0.175361,0.36004 0.349591,0.72497 0.519834,1.08925 0.172158,0.36543 0.342589,0.73511 0.508374,1.10417 0.155231,0.33154 0.307963,0.66833 0.456223,1.00756 0.47718,1.05685 0.910445,2.12393 1.254639,3.19585 0.360343,1.07181 0.61996,2.11052 0.753509,3.17205 -10e-7,1e-5 -0.0023,0.0216 -0.0023,0.0216 -0.0247,0.23071 -0.05502,0.46116 -0.0906,0.69174 -0.13968,1.34954 -0.468973,2.71267 -0.92168,4.13684 -0.258059,0.82798 -0.55663,1.66228 -0.880035,2.47424 -0.139651,0.34549 -0.285293,0.69024 -0.435911,1.03172 0,0 0,0 0,0 -0.192919,0.41892 -0.395574,0.83286 -0.606761,1.23701 -0.749003,1.43831 -1.613476,2.69252 -2.646016,3.60867 -1.032543,0.93058 -2.186577,1.32972 -3.610445,1.22183 -1.202916,-0.0911 -2.355363,-0.58464 -3.434544,-1.38061 -1.059398,-0.76858 -2.03911,-1.79403 -2.914845,-3.07602 -0.860591,-1.2647 -1.621289,-2.75841 -2.272728,-4.53729 -0.630961,-1.79276 -1.112675,-3.81089 -1.343814,-5.9159 -0.0096,-0.0878 -0.01887,-0.17527 -0.02768,-0.26252 0,0 0,0 0,0 0.02225,-0.31138 0.04964,-0.61948 0.08211,-0.92391 0.222523,-2.06855 0.669517,-3.95619 1.275064,-5.60744 0.725813,-1.99654 1.598117,-3.51342 2.583759,-4.75339 0.987533,-1.23316 2.08431,-2.18875 3.16494,-2.89685 1.107099,-0.71193 2.194786,-1.076262 3.250649,-0.935925 z m -2.808794,12.585315 c 6.79e-4,0.76737 0.253313,1.43815 0.762046,2.00104 0.384798,0.41323 0.846807,0.69335 1.378705,0.84267 0,0 0,0 0,0 0.188969,0.0543 0.389075,0.0913 0.600186,0.1111 0.201074,0.0189 0.390855,0.0186 0.569562,-4.7e-4 0,0 0,0 0,0 0.437643,-0.0478 0.790039,-0.21421 1.056583,-0.49328 0.388509,-0.40848 0.553977,-0.97301 0.507689,-1.69882 -0.02559,-0.40124 -0.114003,-0.78118 -0.262035,-1.14129 -0.1322,-0.35825 -0.307668,-0.67679 -0.525071,-0.95483 -0.218604,-0.29764 -0.470729,-0.53545 -0.758158,-0.71262 -0.272749,-0.19473 -0.572625,-0.31804 -0.904129,-0.36983 -0.331492,-0.0518 -0.639626,-0.0235 -0.926758,0.0871 -0.28731,0.0906 -0.545662,0.24495 -0.774538,0.46491 -0.212533,0.20283 -0.386955,0.46288 -0.52128,0.78145 -0.134353,0.31865 -0.203159,0.67975 -0.202802,1.08283 z m 11.725122,-6.78907 c -0.16396,-1.23117 -0.06977,-2.32078 0.235633,-3.18225 0.30567,-0.86221 0.7283,-1.58173 1.25135,-2.1013 0.53914,-0.522457 1.12595,-0.865324 1.77323,-1.015662 0.64705,-0.150282 1.26132,-0.205201 1.85433,-0.180105 0.43751,0.01851 0.95531,0.108575 1.60403,0.255084 0.63927,0.119296 1.28079,0.364831 1.95586,0.701643 0.67119,0.33487 1.32053,0.78055 1.95749,1.32217 0.65487,0.5424 1.20728,1.28058 1.64328,2.23041 0.4775,1.0402 0.62377,1.83389 0.34733,2.44103 -0.26484,0.57491 -0.83443,0.90233 -1.66754,0.98204 -0.55292,0.0529 -1.13351,0.0289 -1.72576,-0.0714 -0.60115,-0.1203 -1.15673,-0.16948 -1.68134,-0.14168 -0.47457,0.0251 -0.79771,0.24533 -0.9848,0.65834 -0.19226,0.39094 -0.19595,0.90074 6e-4,1.50697 0.0922,0.28443 0.21398,0.49657 0.3672,0.63977 0.16414,0.12357 0.34337,0.20768 0.53745,0.25306 0.19404,0.0454 0.39764,0.0618 0.60987,0.0493 0.23067,-0.0135 0.44282,-0.0262 0.6402,-0.0381 0.44673,-0.0271 0.88306,-0.0735 1.30512,-0.1394 0.42221,-0.066 0.85544,-0.11566 1.30162,-0.14977 0.22321,-0.0171 0.47018,-0.027 0.7427,-0.0303 0.29125,-0.005 0.57457,0.0281 0.85137,0.0997 0.28652,0.0515 0.55213,0.15244 0.79655,0.30346 0.2639,0.14918 0.47795,0.37049 0.63488,0.66177 0.15712,0.29166 0.18684,0.52441 0.0873,0.70066 -0.0883,0.15636 -0.2388,0.27837 -0.449,0.36675 -0.21008,0.0883 -0.45454,0.15045 -0.73042,0.18678 -0.27571,0.0363 -0.52413,0.0613 -0.74461,0.0754 -0.30072,0.0191 -0.69215,0.0166 -1.16572,-0.008 -0.4539,-0.0259 -0.89977,-0.0256 -1.3392,0.001 -0.55403,0.0337 -0.98972,0.14996 -1.32205,0.34943 -0.33744,0.18134 -0.41857,0.53666 -0.2529,1.05856 0.15499,0.48825 0.43474,1.01994 0.84414,1.59716 0.0259,0.12619 0.056,0.25459 0.09,0.38528 0.0277,0.0924 0.0553,0.18563 0.0827,0.27965 0.21014,0.64468 0.40918,1.31827 0.60219,2.04896 0.2447,0.8171 0.4174,1.65687 0.54145,2.54441 0.12373,0.88517 0.0779,1.77526 -0.0905,2.67298 -0.008,0.0409 -0.0168,0.0818 -0.0251,0.12278 -0.17433,0.85872 -0.47649,1.66978 -0.8812,2.43277 -0.39036,0.78203 -0.83561,1.52229 -1.33693,2.20103 -0.48748,0.67779 -1.00474,1.28838 -1.57369,1.79868 -0.5566,0.50854 -1.10377,0.86822 -1.67589,1.04614 -0.67661,0.21042 -1.29878,0.16892 -1.88159,-0.13702 -0.57729,-0.27571 -1.08958,-0.75308 -1.52491,-1.40446 -0.41951,-0.65388 -0.74914,-1.44945 -0.97494,-2.34777 -0.21051,-0.90145 -0.30038,-1.86631 -0.26348,-2.87068 0.0377,-1.02573 0.18327,-1.98692 0.42838,-2.89188 0.26162,-0.90797 0.55327,-1.77533 0.86506,-2.61597 0.26209,-0.70661 0.50849,-1.39083 0.73172,-2.06469 0.0483,-0.12911 0.0957,-0.25779 0.14227,-0.38614 0.0415,-0.10975 0.0809,-0.21946 0.11835,-0.32918 0.046,-0.7052 -0.008,-1.40586 -0.15229,-2.12351 -0.12664,-0.62883 -0.31737,-1.24054 -0.56037,-1.84109 -0.24307,-0.6007 -0.49351,-1.21185 -0.74591,-1.83965 -0.25232,-0.62758 -0.49115,-1.27328 -0.71225,-1.94159 -0.22102,-0.66808 -0.381621,-1.37324 -0.481244,-2.12127 0,0 -3.9e-5,-2.9e-4 -3.9e-5,-2.9e-4 z"
         id="text2"
         style="font-size:36.9451px;line-height:1.25;font-family:'Super Funky';-inkscape-font-specification:'Super Funky, Normal';font-variant-ligatures:none;text-align:center;text-anchor:middle;fill:#5a3d2b;fill-opacity:1;stroke-width:0.540084"
         aria-label="OF"
         transform="matrix(0.67533154,0,0,0.67533154,31.126691,37.506092)" /><path
         d="m 61.374439,79.049837 c 2.73e-4,-1.379364 0.335297,-2.486669 1.007261,-3.320824 0.672027,-0.834232 1.519994,-1.481414 2.544335,-1.942169 1.049053,-0.460553 2.186842,-0.759242 3.410898,-0.897308 1.223824,-0.13804 2.385891,-0.202188 3.483592,-0.193317 0.798438,0.0065 1.769738,0.0755 2.913372,0.206887 1.144511,0.10705 2.246119,0.347651 3.30344,0.720906 1.057404,0.373285 1.945331,0.890311 2.66716,1.551612 0.7467,0.661491 1.100684,1.538286 1.073804,2.63418 -0.02928,1.193603 -0.425853,2.106765 -1.199623,2.739305 -0.748498,0.607979 -1.712416,0.910501 -2.896576,0.906238 -0.789286,-0.0028 -1.577813,-0.09131 -2.36594,-0.2656 -0.787919,-0.198794 -1.576746,-0.299578 -2.36606,-0.302113 -0.715322,-0.0023 -1.308716,0.241221 -1.778849,0.731111 -0.470069,0.465356 -0.705595,1.091333 -0.706621,1.878015 -4.82e-4,0.368735 0.07318,0.65168 0.220742,0.848655 0.172216,0.172446 0.381398,0.295779 0.627532,0.370001 0.246137,0.07422 0.516904,0.111605 0.812329,0.112171 0.03651,7e-5 0.849768,0.0017 0.886276,0.0017 0.615476,0.0012 1.218664,-0.02206 1.80964,-0.06988 0.59097,-0.04782 1.181935,-0.07099 1.772837,-0.06954 0.295451,7.22e-4 0.615492,0.0138 0.96011,0.03922 0.369236,0.02549 0.701389,0.1 0.996418,0.223502 0.319734,0.09902 0.577692,0.259251 0.773932,0.480708 0.220861,0.221527 0.330688,0.528699 0.32973,0.921699 -9.57e-4,0.393005 -0.112283,0.699896 -0.334087,0.920612 -0.197159,0.196189 -0.443368,0.343173 -0.73868,0.440925 -0.295313,0.09775 -0.615142,0.158607 -0.959528,0.182551 -0.344387,0.02394 -0.651853,0.03568 -0.922428,0.0352 -0.368962,-6.61e-4 -0.836271,-0.03837 -1.401998,-0.11312 -0.541122,-0.07471 -1.094617,-0.112513 -1.660432,-0.113386 -0.713423,-0.0011 -1.328505,0.121045 -1.84513,0.366499 -0.516658,0.220855 -0.774848,0.700548 -0.774892,1.43927 -4.9e-5,0.837225 0.221095,1.785639 0.66277,2.845333 0.465432,1.033186 0.969531,2.133781 1.507024,3.29046 0.563195,1.134343 1.075869,2.279794 1.540048,3.438632 0.463997,1.15838 0.707244,2.27961 0.731071,3.36335 0,-5.3e-4 -9.1e-5,0.14832 -9.1e-5,0.14779 -5.6e-4,1.03438 -0.245108,1.95787 -0.734088,2.77002 -0.464378,0.83687 -1.087353,1.55055 -1.870416,2.14108 -0.758508,0.59059 -1.615725,1.04576 -2.573049,1.36567 -0.932633,0.31989 -1.866953,0.47986 -2.802834,0.47978 -1.108228,-1e-4 -2.107341,-0.19718 -2.9959,-0.59142 -0.888454,-0.36963 -1.653667,-0.88708 -2.295158,-1.55247 -0.61688,-0.66539 -1.097567,-1.45395 -1.442119,-2.36574 -0.319944,-0.91178 -0.479135,-1.90975 -0.477864,-2.99391 0.0013,-1.10875 0.138333,-2.192961 0.410604,-3.252387 0.296852,-1.059341 0.618409,-2.119086 0.964093,-3.178464 0.345775,-1.059657 0.654125,-2.118868 0.925155,-3.178502 0.295619,-1.08416 0.443004,-2.192793 0.442236,-3.326135 C 63.0079,88.054385 62.920929,87.216748 62.74772,86.40375 62.574508,85.590738 62.388863,84.77776 62.190914,83.964741 61.992975,83.151758 61.80733,82.338672 61.634198,81.525644 61.461079,80.712677 61.374273,79.887169 61.374439,79.049837 Z m 21.359053,1.069361 c 0.01703,-1.04979 0.185761,-1.949899 0.504881,-2.702044 0.343859,-0.751872 0.800993,-1.367329 1.368772,-1.847586 0.568728,-0.504412 1.235213,-0.86132 1.995274,-1.071839 0.786307,-0.234425 1.618063,-0.346981 2.491856,-0.338619 0.898895,0.0086 1.714226,0.148934 2.445062,0.420348 0.73257,0.24743 1.345086,0.601674 1.840231,1.063291 0.495168,0.46164 0.862093,1.006479 1.104646,1.635746 0.268522,0.605264 0.389328,1.258669 0.364615,1.960792 -0.02642,0.750507 -0.221598,1.526098 -0.584949,2.326776 -0.338411,0.800198 -0.723192,1.652832 -1.152909,2.553949 -0.405214,0.877717 -0.782541,1.817742 -1.133624,2.821408 -0.326402,1.003501 -0.491173,2.082648 -0.495977,3.23699 -0.0064,1.54716 0.320758,2.802763 0.979439,3.763019 0.658941,0.960633 1.527992,1.441934 2.607872,1.443989 0.809876,0.0015 1.4735,-0.230843 1.991172,-0.69695 0.517815,-0.490717 1.01137,-1.030369 1.480951,-1.618968 0.494117,-0.588526 1.012655,-1.115153 1.555736,-1.580058 0.56775,-0.489353 1.28175,-0.732562 2.14134,-0.73012 1.30174,0.0037 2.30398,0.619428 3.00713,1.847923 0.72862,1.20527 1.08367,2.885855 1.07307,5.049335 -0.0194,3.95167 -1.25891,6.89334 -3.72234,8.7994 -2.46901,1.93525 -6.082338,2.90322 -10.888279,2.90255 -1.526533,-2.2e-4 -2.834866,-0.12309 -3.923309,-0.36888 -1.087901,-0.22123 -1.981125,-0.58991 -2.677467,-1.1063 -0.696025,-0.49184 -1.219922,-1.14352 -1.569827,-1.95549 -0.325403,-0.81213 -0.501145,-1.79606 -0.526531,-2.95327 -2e-6,-0.003 -1.61e-4,-0.36645 -1.63e-4,-0.36926 -1.66e-4,-0.93545 0.07514,-1.90808 0.224974,-2.917594 0.150839,-1.016305 0.299469,-2.024705 0.451062,-3.065618 0.175442,-1.059963 0.337957,-2.116123 0.48841,-3.175576 0.150295,-1.058336 0.226453,-2.079092 0.228824,-3.062833 0.0024,-0.983581 -0.09369,-1.893124 -0.287863,-2.728521 -0.169513,-0.859919 -0.363233,-1.694862 -0.58064,-2.504629 -0.192287,-0.807583 -0.385068,-1.62098 -0.574485,-2.427177 -0.164991,-0.832418 -0.241598,-1.70134 -0.226954,-2.604184 z m 39.391648,-3.377999 c 1.24137,0.554797 2.34789,1.266146 3.31625,2.030544 0.9936,0.757678 1.90234,1.563492 2.6947,2.374025 0.7594,0.776824 1.46389,1.594855 2.0934,2.469836 0.0354,0.03767 0.0707,0.07569 0.10575,0.114042 0.7343,0.786631 1.37333,1.680921 1.90286,2.711489 0.55593,1.033422 0.98524,2.157663 1.27626,3.382374 0.31688,1.225993 0.47867,2.485961 0.48304,3.769258 0.006,1.906293 -0.34219,3.774111 -1.01938,5.571019 -0.63009,1.716194 -1.52662,3.230924 -2.65823,4.534104 -0.0334,0.0395 -0.0671,0.0787 -0.10104,0.11779 -1.0928,1.26381 -2.44046,2.25605 -4.07609,2.99197 -1.60768,0.73518 -3.51937,1.10431 -5.74685,1.05082 -0.71353,-0.0171 -1.40978,-0.0838 -2.08836,-0.20268 -1.10333,-0.17097 -2.15073,-0.48609 -3.12327,-0.94545 -1.52966,-0.71028 -2.81607,-1.72082 -3.86373,-3.04498 -1.02239,-1.29762 -1.79321,-2.84342 -2.33636,-4.636252 -0.5192,-1.81366 -0.76894,-3.799503 -0.75271,-5.927955 0.0194,-2.54136 0.34922,-4.971904 1.00561,-7.222778 0.65771,-2.278116 1.5787,-4.242945 2.80814,-5.836683 1.26184,-1.625204 2.77453,-2.779382 4.57428,-3.511005 0.8305,-0.33195 1.69257,-0.544964 2.5713,-0.653189 0.98555,0.125203 1.96124,0.428754 2.93443,0.863701 z m -5.08919,12.180449 c -0.01,0.82127 0.25263,1.524847 0.78449,2.104098 0,0 0,0 0,0 0.058,0.06461 0.11901,0.128162 0.18305,0.190652 0.71434,0.676137 1.63461,1.067078 2.76383,1.186649 1.00846,0.106784 1.80223,-0.06704 2.38034,-0.511292 0.60237,-0.464834 0.90337,-1.126562 0.9065,-1.983311 0.002,-0.473388 -0.0921,-0.921513 -0.28045,-1.348991 -0.16445,-0.423823 -0.40008,-0.801775 -0.70634,-1.136656 -0.30582,-0.356677 -0.67173,-0.647818 -1.09687,-0.872538 -0.40084,-0.242839 -0.85142,-0.407688 -1.3504,-0.489738 -0.49942,-0.08212 -0.96523,-0.06776 -1.3979,0.04822 -0.43217,0.09305 -0.81824,0.266059 -1.15825,0.521403 -0.0649,0.04841 -0.12735,0.09985 -0.18731,0.154299 0,0 0,0 0,0 -0.21936,0.236222 -0.40334,0.511751 -0.55179,0.827003 -0.1869,0.396894 -0.28313,0.833809 -0.2889,1.310205 z m 19.84574,-4.887557 c 0.0667,-0.774104 0.43171,-1.252853 1.05448,-1.530842 0.64624,-0.274238 1.45678,-0.393728 2.39747,-0.412154 0.96263,-0.01513 2.02789,0.05715 3.16185,0.1796 1.15824,0.12578 2.35904,0.278608 3.56996,0.443501 1.84423,0.251132 3.74681,0.545974 5.18779,0.806179 1.51662,0.273864 2.86587,0.561553 3.94599,0.916292 0.83246,0.268435 1.52983,0.57558 2.08153,0.957094 0,0 0,0 0,0 0.17478,0.0874 0.33516,0.187089 0.48094,0.299784 0.60773,0.469825 0.91913,1.14623 0.92597,2.041434 0.006,0.833351 -0.14779,1.745648 -0.45997,2.680718 -0.22677,0.66587 -0.52905,1.311282 -0.90792,1.92008 0,0 0,0 0,0 -0.14254,0.216706 -0.29582,0.427491 -0.45995,0.631755 -0.59922,0.725456 -1.33745,1.315357 -2.22296,1.749793 -0.85949,0.435435 -1.85797,0.636871 -3.00376,0.593817 -0.70235,-0.02639 -1.26129,-0.0801 -1.67753,-0.160969 -0.41613,-0.08085 -0.78026,-0.159847 -1.09233,-0.236861 -0.31208,-0.07702 -0.59815,-0.153084 -0.85819,-0.228138 -0.23399,-0.074 -0.53309,-0.118328 -0.89686,-0.133005 -0.25986,-0.01049 -0.46771,0.02421 -0.62342,0.104471 -0.12975,0.08132 -0.22049,0.175267 -0.27224,0.281935 -0.0517,0.106668 -0.0905,0.214144 -0.11629,0.322385 9e-5,0.04675 4e-4,0.21593 4.9e-4,0.262684 0.001,0.768025 0.19753,1.431761 0.58856,1.981061 0.39103,0.549295 0.80826,1.101054 1.25202,1.653306 0.46997,0.531065 0.90057,1.126409 1.29458,1.785749 0.39411,0.65952 0.59399,1.47531 0.60778,2.43945 0.0132,0.91939 -0.18942,1.72862 -0.60218,2.43633 -0.38626,0.72894 -0.90594,1.33593 -1.5565,1.83278 -0.64855,0.51655 -1.39404,0.90567 -2.23835,1.17486 -0.84388,0.26906 -1.73542,0.40191 -2.68132,0.39646 -1.11997,-0.006 -2.15939,-0.17041 -3.1149,-0.50438 -0.95214,-0.31358 -1.80551,-0.75736 -2.54179,-1.34024 -0.71164,-0.58308 -1.28925,-1.2832 -1.71739,-2.10752 -0.40279,-0.82428 -0.62486,-1.73407 -0.66353,-2.7322 -0.0395,-1.01882 0.0833,-2.01153 0.35538,-2.961647 0.29739,-0.947568 0.63075,-1.889312 0.98866,-2.801507 0.35962,-0.916572 0.6799,-1.819311 0.96256,-2.710578 0.30802,-0.910664 0.45957,-1.85099 0.45528,-2.80772 -0.003,-0.706886 -0.097,-1.38792 -0.28024,-2.042718 -0.18347,-0.655758 -0.37753,-1.286785 -0.58135,-1.895147 -0.20287,-0.60554 -0.39016,-1.18842 -0.55429,-1.732887 -0.16414,-0.562275 -0.22849,-1.083273 -0.18803,-1.553005 z m 11.9548,4.570814 c 0.80776,0.04715 1.46806,-0.04721 1.98989,-0.271292 0.54643,-0.238883 0.81958,-0.543536 0.82054,-0.903206 9.1e-4,-0.343889 -0.24464,-0.632996 -0.736,-0.884045 -0.46284,-0.247846 -1.03688,-0.394551 -1.70858,-0.444653 -0.36254,-0.02704 -0.7142,-0.01833 -1.05208,0.02835 -0.33828,0.04674 -0.63838,0.119341 -0.89956,0.219952 -0.26124,0.100637 -0.47093,0.230363 -0.62861,0.391684 -0.15752,0.14569 -0.23709,0.31628 -0.23845,0.512969 -0.002,0.327802 0.21765,0.632981 0.6591,0.902812 0.46892,0.254852 1.06414,0.404841 1.79375,0.44743 z m 12.92013,-3.105588 c -0.0259,-0.63977 0.21265,-1.051002 0.71137,-1.372072 0.51922,-0.321397 1.20846,-0.574621 2.04058,-0.806319 0.84234,-0.231571 1.85437,-0.460775 2.92932,-0.673826 1.10607,-0.218546 2.29625,-0.444026 3.49299,-0.654362 1.91688,-0.336902 3.72037,-0.595862 5.36934,-0.693398 1.26377,-0.07475 2.42301,-0.06095 3.45817,0.07261 0.29713,-0.01627 0.58258,-0.01496 0.85612,0.0046 1.15112,0.0708 2.06195,0.442036 2.71449,1.108206 0.65191,0.66551 0.99905,1.594664 1.04477,2.738282 0.0425,1.064256 -0.0856,2.174554 -0.36268,3.271269 -0.27808,1.078644 -0.69531,2.0844 -1.24458,2.987762 -0.55042,0.883115 -1.23227,1.617843 -2.04929,2.19764 -0.0764,0.0556 -0.15401,0.109025 -0.23287,0.160276 -0.79838,0.442774 -1.71117,0.689468 -2.74438,0.740941 -0.70103,0.03492 -1.25981,0.02923 -1.67569,-0.0167 -0.41592,-0.04593 -0.77998,-0.09418 -1.09213,-0.144832 -0.31215,-0.05065 -0.59837,-0.102382 -0.85863,-0.155227 -0.23422,-0.05417 -0.53358,-0.0718 -0.89812,-0.05322 -0.26035,0.01327 -0.46882,0.06774 -0.62506,0.163423 -0.13025,0.09439 -0.22143,0.197858 -0.27354,0.310585 -0.0521,0.112727 -0.0912,0.225003 -0.11725,0.336845 0,0.02102 -2e-5,0.244749 -2e-5,0.265772 -8e-5,0.776666 0.19501,1.430781 0.58465,1.955318 0.38995,0.524963 0.8042,1.051268 1.24341,1.579641 0.4648,0.503872 0.88915,1.080586 1.26787,1.726726 0.37801,0.64492 0.55612,1.473 0.51329,2.46407 -0.041,0.94766 -0.31715,1.79849 -0.82067,2.55431 -0.47947,0.7766 -1.10583,1.43012 -1.86263,1.96716 -0.75903,0.55762 -1.60786,0.9763 -2.53012,1.26617 -0.92216,0.28984 -1.85741,0.43224 -2.80447,0.43881 -1.12085,0.008 -2.11526,-0.14014 -2.98775,-0.44055 -0.87545,-0.28145 -1.63143,-0.68097 -2.26608,-1.20778 -0.61027,-0.52812 -1.09016,-1.16708 -1.43555,-1.93149 -0.31975,-0.76542 -0.47867,-1.62473 -0.47138,-2.58477 0.007,-0.98181 0.15413,-1.94963 0.44387,-2.8946 0.31587,-0.9459 0.65608,-1.883418 1.02246,-2.80469 0.3661,-0.920575 0.69271,-1.832475 0.97985,-2.722977 0.31327,-0.913168 0.46991,-1.842965 0.46922,-2.763925 -5.2e-4,-0.680519 -0.0928,-1.323327 -0.27746,-1.921827 -0.18465,-0.598466 -0.3833,-1.167092 -0.59654,-1.698401 -0.21324,-0.53131 -0.41498,-1.027353 -0.60586,-1.481363 -0.19125,-0.468531 -0.29323,-0.898485 -0.30902,-1.28808 z m 12.19151,2.499214 c 0.80858,-0.06086 1.46777,-0.25022 1.98553,-0.566864 0.54176,-0.335944 0.8084,-0.71204 0.79686,-1.112498 -0.011,-0.382733 -0.27054,-0.669525 -0.77537,-0.866104 -0.47765,-0.198504 -1.05808,-0.257775 -1.7311,-0.192477 -0.36278,0.0352 -0.71185,0.107711 -1.04502,0.217005 -0.33346,0.109392 -0.62785,0.238367 -0.88248,0.388114 -0.25476,0.149817 -0.4575,0.319653 -0.60818,0.512087 -0.15123,0.176262 -0.22466,0.364376 -0.22033,0.567106 0.007,0.338001 0.23284,0.618444 0.67896,0.835456 0.47276,0.197387 1.07115,0.27312 1.80113,0.218175 z m 16.47308,-11.963548 c 0.22012,-0.09109 0.43579,-0.174191 0.64728,-0.248974 0,0 0,0 0,0 1.4524,-0.137469 2.6917,-0.0088 3.67434,0.428888 1.12907,0.485041 1.77714,1.318045 1.93158,2.494167 0.0771,0.587281 0.0557,1.266692 -0.067,2.038819 -0.1235,0.777168 -0.26605,1.602446 -0.43322,2.509769 -0.16661,0.875806 -0.33357,1.814825 -0.49421,2.798487 -0.1612,0.987166 -0.23751,2.001938 -0.22436,3.046876 0.0143,1.14036 0.20829,2.187908 0.58591,3.143317 0.40083,0.955423 0.8344,1.900805 1.30334,2.840703 0.46803,0.938082 0.89054,1.907041 1.26305,2.900675 0.39516,0.992418 0.60559,2.10364 0.6171,3.32065 0,-6.4e-4 -0.002,0.18345 -0.002,0.18281 -0.0593,5.54729 -2.80783,8.38597 -7.51268,8.55931 0,0 0,0 0,0 -0.15335,0.006 -0.30848,0.009 -0.46541,0.009 -2.19453,0.002 -3.78303,-0.53104 -4.83825,-1.53141 -1.03925,-0.98156 -1.47125,-2.35361 -1.40323,-4.17619 0.007,-0.0927 0.014,-0.18541 0.0206,-0.27822 0.0727,-1.02329 0.26475,-1.96342 0.60205,-2.83311 0.3579,-0.8625 0.72318,-1.762816 1.086,-2.659511 0.38972,-0.928829 0.73593,-1.916582 1.04328,-2.959693 0.33119,-1.044493 0.49059,-2.25228 0.48098,-3.599391 -0.009,-1.230656 -0.14846,-2.27762 -0.42056,-3.138647 -0.27252,-0.884048 -0.58195,-1.669555 -0.93207,-2.358663 -0.32575,-0.691806 -0.64558,-1.348625 -0.96258,-1.962064 -0.2956,-0.640665 -0.47186,-1.334816 -0.55679,-2.086204 -0.15998,-1.41528 0.12321,-2.514497 0.93489,-3.561663 0.80971,-1.045579 2.181,-2.076391 4.1218,-2.879541 z m 17.5428,-2.02123 c 1.72887,-0.02936 3.33859,0.002 4.82734,0.09516 1.48877,0.0932 2.78551,0.296291 3.88656,0.611056 1.1241,0.29078 2.01765,0.728871 2.67599,1.316251 0.65839,0.587416 1.00777,1.348401 1.04458,2.284677 0.0349,0.887665 -0.11815,1.613693 -0.44901,2.171017 -0.30715,0.533585 -0.74229,0.960305 -1.303,1.279005 -0.53615,0.318582 -1.16059,0.553183 -1.87294,0.703713 -0.68769,0.150346 -1.40018,0.288736 -2.13747,0.415188 -0.71262,0.126264 -1.41258,0.264492 -2.09983,0.414659 -0.68725,0.150168 -1.28634,0.384223 -1.79757,0.702314 -0.21939,0.122518 -0.4376,0.305491 -0.65487,0.549081 -0.21771,0.219389 -0.32428,0.462296 -0.31999,0.728936 0.004,0.266649 0.0813,0.484537 0.2314,0.653549 0.17433,0.144578 0.37279,0.26482 0.59548,0.360679 0.22239,0.07156 0.45671,0.118778 0.70303,0.141628 0.27092,0.0227 0.50477,0.03349 0.70158,0.03233 0.63965,-0.0038 1.3282,-0.0321 2.06574,-0.08504 0.73747,-0.05293 1.4157,0.07703 2.03343,0.390605 0.3707,0.193025 0.76661,0.471455 1.18725,0.83566 0.44526,0.364101 0.66919,0.790821 0.67203,1.280145 0.003,0.513789 -0.19154,0.918774 -0.58301,1.214329 -0.36694,0.295479 -0.84461,0.542466 -1.43299,0.740903 -0.56395,0.173834 -1.177,0.335613 -1.83917,0.485341 -0.66229,0.125225 -1.28756,0.2748 -1.87575,0.448707 -0.56379,0.149307 -1.0413,0.347252 -1.4325,0.593853 -0.36668,0.246511 -0.54856,0.590284 -0.54582,1.0316 0.005,0.760071 0.27782,1.298947 0.81941,1.616149 0.54146,0.292671 1.13103,0.438053 1.76895,0.435958 0.58883,-0.0019 1.16514,-0.05292 1.72899,-0.152994 0.58836,-0.100154 1.16451,-0.200273 1.72843,-0.300351 0.56379,-0.124647 1.12775,-0.22473 1.69187,-0.300233 0.58853,-0.100153 1.17735,-0.151159 1.7664,-0.152976 0.95722,-0.003 1.73107,0.154512 2.32145,0.472528 0.61481,0.293352 1.09509,0.71021 1.44083,1.250619 0.3457,0.540357 0.58138,1.179711 0.70668,1.917671 0.12517,0.71312 0.18913,1.50103 0.19076,2.36185 0.004,2.04297 -0.46665,3.6641 -1.41153,4.86884 -0.91983,1.2041 -2.11607,2.12365 -3.58304,2.76104 -1.442,0.63723 -3.03167,1.04075 -4.76137,1.21205 -1.70601,0.19571 -3.36072,0.2934 -4.96146,0.29365 -1.40384,2.2e-4 -2.75282,-0.12136 -4.04653,-0.36436 -0.36373,-0.0697 -0.7157,-0.15328 -1.05598,-0.25088 -0.83697,-0.2429 -1.59363,-0.57179 -2.27267,-0.98746 -0.9285,-0.58314 -1.63767,-1.37051 -2.15695,-2.36677 -0.51887,-0.96905 -0.75405,-2.21315 -0.73341,-3.72202 0.0144,-1.0486 0.18955,-1.98806 0.53519,-2.821969 0.34604,-0.85937 0.70951,-1.690864 1.09786,-2.503516 0.41046,-0.810903 0.78623,-1.647976 1.12667,-2.50756 0.34038,-0.884364 0.50649,-1.876435 0.49666,-2.971751 -0.0112,-1.241566 -0.13846,-2.342201 -0.38308,-3.301333 -0.2214,-0.959698 -0.46797,-1.852191 -0.74159,-2.677083 -0.26985,-0.81357 -0.54401,-1.641981 -0.80374,-2.416259 -0.24128,-0.810485 -0.38887,-1.662956 -0.45144,-2.559261 -0.0737,-1.055977 0.0623,-1.944473 0.43505,-2.68712 0.39417,-0.767779 0.93982,-1.419197 1.65571,-1.962478 0.47574,-0.361028 1.00465,-0.67672 1.58729,-0.945251 0.30082,-0.103646 0.61463,-0.193219 0.94151,-0.268726 1.00058,-0.22577 2.01544,-0.347903 3.04259,-0.36535 z m 29.79381,0.142123 c 0.6471,-0.0072 1.38232,0.0091 2.20452,0.04911 0.84715,0.03977 1.72012,0.128313 2.6178,0.266167 0.8972,0.11348 1.77002,0.301034 2.61753,0.563286 0.87199,0.237604 1.64432,0.574826 2.31664,1.012081 0.67209,0.41272 1.20688,0.937672 1.60456,1.574861 0.42226,0.612455 0.63327,1.349565 0.63373,2.210647 6.6e-4,1.229876 -0.23488,2.141691 -0.70307,2.732966 -0.4438,0.591529 -1.30568,0.88832 -2.58583,0.891304 -0.59085,0.0014 -1.14471,-0.08329 -1.66182,-0.253878 -0.51712,-0.195164 -1.03435,-0.402363 -1.55193,-0.621594 -0.49292,-0.219307 -0.99835,-0.413753 -1.5163,-0.583395 -0.51799,-0.194162 -1.07295,-0.289817 -1.66449,-0.287216 -0.56691,0.0025 -1.0838,0.164049 -1.55062,0.484479 -0.44231,0.295846 -0.66219,0.713041 -0.66058,1.252171 0.001,0.465623 0.3594,0.905591 1.07368,1.320442 0.73887,0.414755 1.64963,0.854199 2.73198,1.318603 1.10734,0.439915 2.28706,0.929275 3.5413,1.469041 1.27857,0.539617 2.45831,1.190981 3.54003,1.953948 1.10623,0.762901 2.01598,1.662062 2.72969,2.69682 0.7383,1.034748 1.10851,2.254539 1.11094,3.658947 0.004,2.217795 -0.35977,4.151666 -1.0946,5.803206 -0.7348,1.65144 -1.79117,3.00701 -3.17059,4.06721 -1.37942,1.08481 -3.04412,1.88569 -4.99292,2.40332 -1.94883,0.54221 -4.13148,0.81309 -6.5441,0.81378 -1.52643,4.3e-4 -2.99869,-0.26939 -4.41744,-0.8089 -1.41891,-0.53957 -2.67459,-1.29981 -3.77203,-2.28139 -1.09716,-0.98132 -1.97609,-2.13571 -2.63801,-3.46248 -0.66192,-1.35135 -0.99721,-2.815243 -1.0028,-4.390208 -0.002,-0.664516 0.0932,-1.341568 0.28697,-2.031114 0.1937,-0.714181 0.48592,-1.354618 0.87687,-1.921517 0.39084,-0.591473 0.88053,-1.060131 1.46899,-1.40609 0.58835,-0.370535 1.26344,-0.556906 2.02491,-0.55899 0.73692,-0.002 1.43741,0.156001 2.10136,0.47425 0.68847,0.29359 1.3647,0.624309 2.02877,0.992198 0.66409,0.367892 1.34038,0.711307 2.02897,1.030232 0.7131,0.294247 1.45041,0.440787 2.21201,0.439543 1.13016,-0.0018 1.69451,-0.335237 1.69331,-1.000456 -8.4e-4,-0.468074 -0.32094,-0.898684 -0.96042,-1.29163 -0.63942,-0.392905 -1.45102,-0.810072 -2.43447,-1.250967 -0.96003,-0.441484 -2.00284,-0.930074 -3.13521,-1.468359 -1.1069,-0.537924 -2.15214,-1.173321 -3.13743,-1.906012 -0.96087,-0.757395 -1.7623,-1.636024 -2.40765,-2.635736 -0.64561,-1.024361 -0.97419,-2.217386 -0.99308,-3.579385 -0.0111,-0.80226 0.14813,-1.543454 0.47923,-2.224403 0.35531,-0.705411 0.82099,-1.338284 1.39899,-1.899496 0.60207,-0.585615 1.29173,-1.099458 2.07079,-1.542143 0.77903,-0.442672 1.58545,-0.81356 2.42001,-1.112682 0.83451,-0.299108 1.65989,-0.526043 2.47591,-0.680437 0.84,-0.178854 1.60892,-0.27241 2.3059,-0.280132 z"
         id="text3"
         style="font-size:36.9602px;line-height:1.25;font-family:'Super Funky';-inkscape-font-specification:'Super Funky, Normal';font-variant-ligatures:none;text-align:center;text-anchor:middle;fill:#f4a127;fill-opacity:1;stroke-width:0.652859"
         transform="matrix(0.5971177,0,0,1.5334664,4.2951422,6.2366228)"
         aria-label="FLOPPIES" /></g></g></svg>
