<?xml version="1.0" encoding="UTF-8" standalone="no"?>
<!-- Created with Inkscape (http://www.inkscape.org/) -->

<svg
   width="121.54197mm"
   height="121.75691mm"
   viewBox="0 0 121.54197 121.75691"
   version="1.1"
   id="svg1"
   xml:space="preserve"
   xmlns="http://www.w3.org/2000/svg"
   xmlns:svg="http://www.w3.org/2000/svg"><defs
     id="defs1" /><g
     id="layer1"
     transform="translate(-335.00695,-143.14186)"><g
       id="g18"
       transform="translate(298.0247,88.133333)"
       style="display:inline"><path
         d="M 36.982239,55.008529 V 176.76544 h 46.779057 a 1.8,1.8 0 0 1 -0.08113,-0.19586 1.8,1.8 0 0 1 1.79989,-1.79989 1.8,1.8 0 0 1 1.79989,1.79989 1.8,1.8 0 0 1 -0.08113,0.19586 h 20.509854 a 1.8,1.8 0 0 1 -0.016,-0.0388 1.8,1.8 0 0 1 1.79989,-1.79989 1.8,1.8 0 0 1 1.79989,1.79989 1.8,1.8 0 0 1 -0.016,0.0388 h 47.24776 V 86.755945 h -3.45302 v -4.924247 h 3.45302 V 55.008529 Z M 96.963074,96.39515 A 18.077,18.077097 0 0 1 115.04001,114.47208 18.077,18.077097 0 0 1 96.963074,132.54902 18.077,18.077097 0 0 1 78.886141,114.47208 18.077,18.077097 0 0 1 96.963074,96.39515 Z M 119.0811,117.398 a 3.0079999,3.0080161 0 0 1 3.00809,3.00809 3.0079999,3.0080161 0 0 1 -3.00809,3.00808 3.0079999,3.0080161 0 0 1 -3.00808,-3.00808 3.0079999,3.0080161 0 0 1 3.00808,-3.00809 z"
         style="display:inline;opacity:1;stroke-width:0.25;stroke-linecap:round;stroke-linejoin:round;stroke-miterlimit:1"
         id="path14" /><path
         d="M 96.963074,96.39515 A 18.077,18.077097 0 0 0 78.886141,114.47208 18.077,18.077097 0 0 0 96.963074,132.54902 18.077,18.077097 0 0 0 115.04001,114.47208 18.077,18.077097 0 0 0 96.963074,96.39515 Z m 0.26665,5.6441 a 12.7335,12.733503 0 0 1 12.733076,12.73307 12.7335,12.733503 0 0 1 -12.733076,12.73359 12.7335,12.733503 0 0 1 -12.73359,-12.73359 12.7335,12.733503 0 0 1 12.73359,-12.73307 z"
         style="display:inline;opacity:1;fill:#808080;stroke-width:0.236354;stroke-linecap:round;stroke-linejoin:round;stroke-miterlimit:1"
         id="path15" /><path
         d="m 119.0811,117.398 a 3.0079999,3.0080161 0 0 0 -3.00808,3.00809 3.0079999,3.0080161 0 0 0 3.00808,3.00808 3.0079999,3.0080161 0 0 0 3.00809,-3.00808 3.0079999,3.0080161 0 0 0 -3.00809,-3.00809 z m -0.11472,2.70991 a 1.2603227,1.260323 0 0 1 1.26039,1.26039 1.2603227,1.260323 0 0 1 -1.26039,1.26039 1.2603227,1.260323 0 0 1 -1.26039,-1.26039 1.2603227,1.260323 0 0 1 1.26039,-1.26039 z"
         style="opacity:1;fill:#666666;stroke-width:0.0393295;stroke-linecap:round;stroke-linejoin:round;stroke-miterlimit:1"
         id="path16" /><path
         id="path17"
         style="opacity:1;fill:#808080;fill-opacity:1;stroke:#000000;stroke-width:0.277643;stroke-linecap:round;stroke-linejoin:round;stroke-miterlimit:1"
         d="m 97.709281,139.56926 a 5.9191113,5.9191113 0 0 0 -5.900415,5.65288 h -0.01499 v 0.20878 a 5.9191113,5.9191113 0 0 0 -0.0041,0.0574 5.9191113,5.9191113 0 0 0 0.0041,0.0574 v 20.09179 h 0.0021 a 5.9191113,5.9191113 0 0 0 -0.0062,0.0889 5.9191113,5.9191113 0 0 0 5.919535,5.91902 5.9191113,5.9191113 0 0 0 5.919019,-5.91902 5.9191113,5.9191113 0 0 0 -0.004,-0.16588 v -20.0148 a 5.9191113,5.9191113 0 0 0 0.004,-0.0574 5.9191113,5.9191113 0 0 0 -0.004,-0.16588 v -0.10026 h -0.003 a 5.9191113,5.9191113 0 0 0 -5.912299,-5.65288 z" /><path
         d="M 97.229724,100.93906 A 13.833496,13.8335 0 0 0 83.395943,114.77232 13.833496,13.8335 0 0 0 97.229724,128.6061 13.833496,13.8335 0 0 0 111.06299,114.77232 13.833496,13.8335 0 0 0 97.229724,100.93906 Z m 0,1.10019 a 12.7335,12.733503 0 0 1 12.733076,12.73307 12.7335,12.733503 0 0 1 -12.733076,12.73359 12.7335,12.733503 0 0 1 -12.73359,-12.73359 12.7335,12.733503 0 0 1 12.73359,-12.73307 z"
         style="opacity:1;fill:#b3b3b3;stroke-width:0.180871;stroke-linecap:round;stroke-linejoin:round;stroke-miterlimit:1"
         id="path18" /><rect
         style="opacity:1;fill:#ececec;fill-opacity:1;stroke:#666666;stroke-width:0.55;stroke-linecap:round;stroke-linejoin:round;stroke-miterlimit:1;stroke-dasharray:none"
         id="rect18"
         width="47.045261"
         height="27.766132"
         x="41.282478"
         y="59.828163"
         ry="2.2003353" /></g><g
       id="text20"
       style="font-size:7.10147px;line-height:1.05;font-family:'Megamax Jonathan Too';-inkscape-font-specification:'Megamax Jonathan Too, Normal';font-variant-ligatures:none;text-align:center;text-anchor:middle;fill:#4d4d4d;stroke-width:0.101816"
       aria-label="Festival&#10;Of&#10;Floppies"><path
         style="font-size:7.76111px;font-family:'Handwriting - Dakota';-inkscape-font-specification:'Handwriting - Dakota, Normal';fill:#000080"
         d="m 356.61423,150.09488 q 0,0.0543 -0.0233,0.1397 -0.008,0.0155 -0.0466,0.13194 -0.36477,-0.27164 -0.92357,-0.27164 -0.54328,0 -2.08774,0.53552 -1.60655,0.5588 -1.87819,0.90029 -0.10866,0.1397 -0.45015,0.74506 -0.1785,0.31821 -0.28716,0.46567 0.18627,0.0466 0.2794,0.0466 0.22507,0 0.66746,-0.0931 0.45014,-0.10089 0.67521,-0.10089 0.36478,0 0.45791,0.0155 0.27164,0.0466 0.40358,0.20955 -0.39582,0.0854 -1.40476,0.30268 -0.6985,0.15522 -1.37372,0.44239 -0.35701,0.15522 -0.58984,0.7373 -0.1009,0.2794 -0.39582,0.98566 -0.21731,0.48895 -0.62089,0.48895 v -0.13194 q 0,-0.29492 0.4191,-1.06327 0.21731,-0.39582 0.78387,-1.41252 0.42686,-0.77611 0.42686,-1.00118 0,-0.10866 -0.0854,-0.20179 -0.24059,-0.25612 -0.24835,-0.28716 l 0.0155,-0.12418 0.17074,-0.17851 q 0.76059,-0.11641 1.80058,-0.53551 l 1.76953,-0.71403 q 0.88477,-0.35701 1.89371,-0.35701 0.53552,0 0.65194,0.32597 z m 0.51223,5.03696 q -0.23283,0.25612 -1.10207,0.38806 -0.61313,0.0931 -1.24954,0.0931 -1.31163,0 -1.31163,-0.75283 0,-0.92357 1.36596,-1.58327 0.47342,-0.23283 0.98566,-0.38029 0.49671,0.11642 0.65969,0.17075 0.34925,0.11641 0.34925,0.58208 0,0.41134 -0.52775,0.65193 -0.44239,0.20179 -0.90029,0.20179 -0.71403,0 -1.02447,-0.21731 -0.38805,0.18627 -0.38805,0.48119 0,0.51999 0.94685,0.51999 0.34925,0 0.81492,-0.0466 1.09431,-0.10866 1.38147,-0.10866 z m -0.79939,-1.49013 q -0.23283,-0.24836 -0.56656,-0.24836 -0.2406,0 -0.43462,0.1009 -0.008,0.008 -0.39582,0.21731 0.23283,0.37253 0.63641,0.37253 0.45791,0 0.76059,-0.44238 z m 5.61905,-1.71521 q -0.0699,0.36477 -0.58209,0.51224 -0.30268,0.0776 -1.07879,0.27163 -0.66746,0.17075 -0.97014,0.48119 0.9779,0.2406 1.21849,0.33373 0.85373,0.31821 0.85373,0.73731 0,0.60536 -1.01671,1.13312 -0.90029,0.4579 -1.56774,0.4579 -0.55104,0 -1.00895,-0.42686 -0.49671,-0.46566 -0.4579,-0.99342 l 0.008,-0.11642 q 0.21731,0.0776 0.62865,0.65194 0.38805,0.53551 0.68298,0.53551 0.50447,0 1.30386,-0.34149 0.92357,-0.39581 0.92357,-0.82267 0,-0.30269 -0.54327,-0.46567 -0.0233,0 -1.15641,-0.29492 -0.62865,-0.16299 -0.82268,-0.3803 0.23284,-0.25611 0.92358,-0.54327 0.44238,-0.18627 1.31938,-0.45015 0.94686,-0.28716 1.1176,-0.34925 0.1009,0.0543 0.22508,0.0699 z m 3.60115,-0.94685 q 0,0.19402 -0.13194,0.43462 -0.0543,0.10089 -0.47343,0.65969 0.19403,0.13194 0.39582,0.25612 0.21731,0.17851 0.19403,0.40358 l -0.008,0.0854 q -0.008,0 -0.35701,-0.10866 -0.22507,-0.0699 -0.34925,-0.0699 -0.42686,0 -1.23401,0.90029 -0.7994,0.89253 -0.7994,1.33491 0,0.3803 0.68298,0.55104 0.43462,0.10866 0.9779,0.10866 0.20955,0 0.42686,-0.031 -0.008,0.0388 0.0698,0.1397 -0.48895,0.18627 -0.97014,0.18627 -1.74625,0 -1.74625,-0.85372 0,-0.50447 0.87701,-1.48237 l 0.66745,-0.74507 -0.27164,-0.0155 q -0.17074,-0.008 -0.4579,0.0931 -0.56656,0.20179 -0.66746,0.20179 -0.13193,0 -0.24835,-0.0776 -0.10866,-0.0854 -0.10866,-0.20955 0,-0.30268 0.69074,-0.30268 0.0698,0 0.20179,0.008 0.13194,0.008 0.20179,0.008 0.58984,0 0.97014,-0.20179 0.38805,-0.20179 0.68298,-0.6985 0.10089,-0.17075 0.47342,-0.96238 0.1009,0 0.20179,0.1397 0.10866,0.1397 0.10866,0.24836 z m 2.10325,0.29492 q 0,0.2794 -0.37253,0.2794 -0.34149,0 -0.34149,-0.2794 0,-0.1397 0.0854,-0.38806 0.0931,-0.24835 0.1009,-0.37253 0.0776,0.0466 0.29492,0.44238 0.0155,0.0233 0.1397,0.1397 0.0931,0.0854 0.0931,0.17851 z m -0.72954,2.1343 q 0,0.12418 -0.43462,1.23402 -0.0543,0.1397 -0.16299,0.41134 -0.0931,0.20955 -0.24059,0.26388 -0.0854,0.031 -0.34925,0.031 0,-0.0543 -0.0233,-0.15522 -0.0155,-0.1009 -0.0155,-0.15522 0,-0.17075 0.13194,-0.3803 0.17851,-0.28716 0.20179,-0.34925 0.0621,-0.19403 0.2406,-0.68298 0.13193,-0.34148 0.4191,-0.57432 0.23283,0.23284 0.23283,0.35701 z m 4.36951,-1.48237 q 0,0.53552 -0.72955,1.17969 l -1.10207,0.9779 q -0.031,0.0388 -0.1397,0.31044 l -0.2794,0.68298 q -0.25612,0.62089 -0.67522,0.62089 -0.39582,0 -0.39582,-0.64417 0,-0.10866 0.0155,-0.30268 0.0155,-0.22508 0.0155,-0.31045 0.008,-0.24059 -0.15522,-0.6985 -0.16299,-0.4579 -0.16299,-0.69074 0,-0.15522 0.0776,-0.28716 0.0776,-0.13194 0.22508,-0.13194 0.25611,0 0.40357,0.88477 l 0.19403,1.16417 q 0.19403,-0.20179 0.81492,-0.93134 0.28716,-0.33373 0.50447,-0.5588 l 1.24178,-1.26506 z m 3.2907,3.77966 q -0.17074,0.37254 -0.40357,0.37254 -0.26388,0 -0.58209,-0.38806 -0.24835,-0.29492 -0.40357,-0.63641 -0.65194,0.31044 -0.88477,0.40358 -0.57432,0.22507 -0.92357,0.22507 -0.61313,0 -0.61313,-0.62089 0,-1.00118 1.08656,-1.78506 0.35701,-0.25611 0.96237,-0.55103 0.72179,-0.34925 1.02447,-0.34925 0.20955,0 0.39582,0.22507 0.18626,0.22507 0.18626,0.44238 0,0.42686 -0.34149,1.12536 -0.33372,0.69074 -0.33372,0.7994 0,0.37253 0.11641,0.51223 0.0931,0.11642 0.71402,0.22507 z m -0.2794,-2.62325 q 0,-0.2794 -0.48118,-0.2794 -0.70626,0 -1.17193,0.3182 -0.43462,0.29492 -0.90029,0.79164 -0.58984,0.62865 -0.58984,0.99342 0,0.21731 0.18626,0.33373 0.16299,0.10089 0.39582,0.10089 0.67522,0 1.1564,-0.47343 0.11642,-0.11641 0.6597,-0.89253 0.33373,-0.48118 0.64417,-0.48118 0.10089,-0.21732 0.10089,-0.41134 z m 0.25612,2.77847 v -0.0233 h 0.0155 v -0.0233 h -0.0155 v -0.0466 h 0.031 v 0.0155 h -0.0155 v 0.0155 h 0.0155 v 0.0621 z m 2.9337,-5.23098 q 0,0.0466 -0.52,1.00118 l -1.00894,1.8549 q -0.62865,1.16417 -0.69074,1.35044 l -0.15522,0.49671 q -0.13194,0.31044 -0.34149,0.31044 -0.11642,0 -0.26388,-0.0543 l -0.0854,-0.1397 q 0.0854,-0.40358 0.58208,-1.2185 l 0.98566,-1.62207 q 0.57432,-0.93909 0.75283,-1.57551 0.031,-0.13193 0.13194,-0.46566 0.0931,-0.23284 0.30268,-0.34925 0.11642,0.0155 0.20955,0.15522 0.1009,0.13194 0.1009,0.25612 z"
         id="path20" /><path
         style="font-size:7.76111px;font-family:'Handwriting - Dakota';-inkscape-font-specification:'Handwriting - Dakota, Normal';fill:#000080"
         d="m 363.61086,161.02472 q 0,0.9779 -0.9779,1.98684 -0.9779,1.00119 -1.94803,1.00119 h -0.43463 q -0.96237,0 -1.42804,-0.16299 -0.76835,-0.2794 -0.76835,-1.07879 0,-1.38148 1.44357,-2.5534 0.33372,-0.25612 1.18745,-0.95462 0.17074,-0.15522 0.60536,-0.54328 0.35701,-0.31044 0.72955,-0.31044 0.76058,0 1.21849,0.96237 0.37253,0.78388 0.37253,1.65312 z m -0.72954,-0.93133 q 0,-0.45015 -0.31821,-0.60537 -0.22507,-0.10865 -0.7373,-0.10865 -0.50447,0 -1.41252,0.72954 -0.68298,0.55104 -1.18745,1.14864 -0.6597,0.78388 -0.6597,1.22626 0,0.48119 0.61313,0.79939 0.51223,0.26388 1.03999,0.26388 1.30386,0 2.03341,-1.10984 0.62865,-0.95461 0.62865,-2.34385 z m 6.62023,-0.63641 q 0,0.2794 -0.15522,0.53551 -0.15523,0.25612 -0.40358,0.39582 l 0.17074,-0.72178 q 0,-0.24836 -0.19403,-0.41134 -0.18626,-0.17075 -0.44238,-0.17075 -0.8382,0 -1.38924,0.76835 -0.1397,0.19403 -0.77611,1.4979 0.6597,0.19402 0.74507,0.25611 0.20955,0.14746 0.20955,0.4191 -0.46567,-0.0776 -0.93134,-0.16298 -0.37253,0 -0.67521,0.58984 -0.0543,0.10866 -0.41134,0.91582 -0.35701,0.58208 -0.98566,0.71402 0,-0.30269 0.20955,-0.72179 0.0388,-0.0776 0.74507,-1.18745 -0.0854,-0.0854 -0.10866,-0.0854 -0.10866,0 -0.38806,0.0776 -0.35701,0.15523 -0.4579,0.15523 -0.16298,0 -0.22507,-0.0466 -0.0543,-0.0466 -0.1397,-0.20955 0,-0.25612 0.41134,-0.32597 0.27163,-0.031 0.81491,-0.11641 0.48895,-0.0854 0.69074,-0.43463 0.48119,-0.8382 0.65193,-1.09431 0.95462,-1.42805 2.02565,-1.42805 0.4191,0 0.69074,0.17851 0.31821,0.20955 0.31821,0.61313 z"
         id="path21" /><path
         style="font-size:7.76111px;font-family:'Handwriting - Dakota';-inkscape-font-specification:'Handwriting - Dakota, Normal';fill:#000080"
         d="m 355.06976,166.70805 q 0,0.0543 -0.0233,0.1397 -0.008,0.0155 -0.0466,0.13194 -0.36478,-0.27164 -0.92358,-0.27164 -0.54327,0 -2.08773,0.53552 -1.60655,0.5588 -1.87819,0.90029 -0.10866,0.1397 -0.45015,0.74506 -0.1785,0.31821 -0.28716,0.46567 0.18627,0.0466 0.2794,0.0466 0.22507,0 0.66746,-0.0931 0.45014,-0.10089 0.67521,-0.10089 0.36478,0 0.45791,0.0155 0.27164,0.0466 0.40358,0.20955 -0.39582,0.0854 -1.40476,0.30268 -0.6985,0.15523 -1.37372,0.44239 -0.35701,0.15522 -0.58985,0.7373 -0.10089,0.2794 -0.39581,0.98566 -0.21731,0.48895 -0.62089,0.48895 v -0.13194 q 0,-0.29492 0.4191,-1.06327 0.21731,-0.39581 0.78387,-1.41252 0.42686,-0.77611 0.42686,-1.00118 0,-0.10866 -0.0854,-0.20179 -0.24059,-0.25612 -0.24836,-0.28716 l 0.0155,-0.12418 0.17074,-0.17851 q 0.76059,-0.11641 1.80058,-0.53551 l 1.76953,-0.71402 q 0.88477,-0.35702 1.89371,-0.35702 0.53552,0 0.65194,0.32597 z m -0.0543,0.53552 q 0,0.0466 -0.51999,1.00118 l -1.00895,1.85491 q -0.62865,1.16416 -0.69073,1.35043 l -0.15523,0.49671 q -0.13194,0.31044 -0.34149,0.31044 -0.11641,0 -0.26387,-0.0543 l -0.0854,-0.1397 q 0.0854,-0.40358 0.58209,-1.2185 l 0.98566,-1.62207 q 0.57432,-0.93909 0.75283,-1.5755 0.031,-0.13194 0.13193,-0.46567 0.0931,-0.23283 0.30269,-0.34925 0.11641,0.0155 0.20955,0.15522 0.10089,0.13194 0.10089,0.25612 z m 4.25309,3.56235 q 0,0.72954 -1.05552,1.14088 -0.79939,0.31044 -1.68416,0.31044 -1.8549,0 -1.8549,-0.91581 0,-0.65193 1.21073,-1.26506 1.0788,-0.54328 1.8161,-0.54328 0.65193,0 1.0788,0.30269 0.48895,0.34149 0.48895,0.97014 z m -0.42687,-0.0466 q 0,-0.38029 -0.38805,-0.57432 -0.31045,-0.15522 -0.72955,-0.15522 -0.6985,0 -1.45132,0.38805 -0.79164,0.39582 -1.13312,0.97014 0.52775,0.53552 1.26506,0.53552 0.70626,0 1.45132,-0.25612 0.98566,-0.34149 0.98566,-0.90805 z m 4.72652,-0.89253 q 0,0.76059 -0.97014,1.35044 -0.43462,0.26387 -1.91699,0.86924 -1.14088,0.45791 -1.34267,0.79939 -0.25612,0.63642 -0.4191,0.97014 -0.34149,0.69074 -0.6985,0.69074 -0.21731,0 -0.21731,-0.21731 0,-0.17074 0.42686,-0.71402 0.19403,-0.23283 0.56656,-0.6985 0.36477,-0.46567 0.45014,-0.72178 l 0.7994,-0.9779 q 0.50447,-0.69074 0.50447,-1.10984 -0.0621,0.0388 -0.16298,0.10089 -0.1009,0.0543 -0.26388,0.11642 -0.11642,-0.1009 -0.11642,-0.28716 0,-0.33373 1.0788,-0.65194 0.91581,-0.27164 1.397,-0.27164 0.88476,0 0.88476,0.75283 z m -0.4579,-0.0233 q 0,-0.32597 -0.61313,-0.32597 -0.38029,0 -0.74507,0.23284 -0.32596,0.20955 -0.86924,0.99342 -0.5588,0.81491 -0.5588,1.14864 0.22507,-0.0776 0.80715,-0.30268 0.60537,-0.25612 1.12537,-0.71402 0.19402,-0.17075 0.62865,-0.62089 0.22507,-0.23284 0.22507,-0.41134 z m 4.76532,0.0233 q 0,0.76059 -0.97014,1.35044 -0.43462,0.26387 -1.91699,0.86924 -1.14088,0.45791 -1.34267,0.79939 -0.25612,0.63642 -0.4191,0.97014 -0.34149,0.69074 -0.6985,0.69074 -0.21731,0 -0.21731,-0.21731 0,-0.17074 0.42686,-0.71402 0.19402,-0.23283 0.56656,-0.6985 0.36477,-0.46567 0.45014,-0.72178 l 0.7994,-0.9779 q 0.50447,-0.69074 0.50447,-1.10984 -0.0621,0.0388 -0.16298,0.10089 -0.1009,0.0543 -0.26388,0.11642 -0.11642,-0.1009 -0.11642,-0.28716 0,-0.33373 1.0788,-0.65194 0.91581,-0.27164 1.397,-0.27164 0.88476,0 0.88476,0.75283 z m -0.4579,-0.0233 q 0,-0.32597 -0.61313,-0.32597 -0.3803,0 -0.74507,0.23284 -0.32596,0.20955 -0.86924,0.99342 -0.5588,0.81491 -0.5588,1.14864 0.22507,-0.0776 0.80715,-0.30268 0.60537,-0.25612 1.12536,-0.71402 0.19403,-0.17075 0.62865,-0.62089 0.22508,-0.23284 0.22508,-0.41134 z m 2.5534,-1.9558 q 0,0.2794 -0.37253,0.2794 -0.34149,0 -0.34149,-0.2794 0,-0.1397 0.0854,-0.38806 0.0931,-0.24835 0.1009,-0.37253 0.0776,0.0466 0.29492,0.44238 0.0155,0.0233 0.1397,0.1397 0.0931,0.0854 0.0931,0.17851 z m -0.72954,2.1343 q 0,0.12418 -0.43462,1.23402 -0.0543,0.1397 -0.16299,0.41134 -0.0931,0.20955 -0.24059,0.26388 -0.0854,0.031 -0.34925,0.031 0,-0.0543 -0.0233,-0.15522 -0.0155,-0.10089 -0.0155,-0.15522 0,-0.17075 0.13194,-0.3803 0.17851,-0.28716 0.20179,-0.34925 0.0621,-0.19402 0.24059,-0.68297 0.13194,-0.34149 0.4191,-0.57433 0.23284,0.23284 0.23284,0.35701 z m 4.43936,1.72297 q -0.23284,0.25612 -1.10208,0.38806 -0.61313,0.0931 -1.24954,0.0931 -1.31163,0 -1.31163,-0.75283 0,-0.92357 1.36596,-1.58326 0.47343,-0.23284 0.98566,-0.3803 0.49671,0.11642 0.65969,0.17075 0.34925,0.11641 0.34925,0.58208 0,0.41134 -0.52775,0.65193 -0.44239,0.20179 -0.90029,0.20179 -0.71402,0 -1.02447,-0.21731 -0.38805,0.18627 -0.38805,0.48119 0,0.51999 0.94685,0.51999 0.34925,0 0.81492,-0.0466 1.09432,-0.10866 1.38148,-0.10866 z m -0.7994,-1.49013 q -0.23283,-0.24836 -0.56656,-0.24836 -0.24059,0 -0.43462,0.1009 -0.008,0.008 -0.39582,0.21731 0.23284,0.37253 0.63641,0.37253 0.45791,0 0.76059,-0.44238 z m 5.61905,-1.71521 q -0.0699,0.36477 -0.58208,0.51224 -0.30269,0.0776 -1.0788,0.27163 -0.66745,0.17075 -0.97014,0.48119 0.9779,0.2406 1.2185,0.33373 0.85372,0.31821 0.85372,0.73731 0,0.60536 -1.01671,1.13312 -0.90029,0.4579 -1.56774,0.4579 -0.55104,0 -1.00895,-0.42686 -0.49671,-0.46566 -0.4579,-0.99342 l 0.008,-0.11642 q 0.21731,0.0776 0.62865,0.65194 0.38806,0.53551 0.68298,0.53551 0.50447,0 1.30386,-0.34148 0.92358,-0.39582 0.92358,-0.82268 0,-0.30269 -0.54328,-0.46567 -0.0233,0 -1.15641,-0.29492 -0.62865,-0.16298 -0.82267,-0.3803 0.23283,-0.25611 0.92357,-0.54327 0.44238,-0.18627 1.31939,-0.45015 0.94685,-0.28716 1.1176,-0.34925 0.10089,0.0543 0.22507,0.0699 z"
         id="path23" /></g></g></svg>
