<svg version="1.1" xmlns="http://www.w3.org/2000/svg" viewBox="0 0 39 39"><!-- Created with: https://fietkau.software/qr --><path d="M1.5 1h6a0.5 0.5 0 0 1 0.5 0.5v6a0.5 0.5 0 0 1 -0.5 0.5h-6a0.5 0.5 0 0 1 -0.5 -0.5v-6a0.5 0.5 0 0 1 0.5 -0.5zM2 2.5v4a0.5 0.5 0 0 0 0.5 0.5h4a0.5 0.5 0 0 0 0.5 -0.5v-4a0.5 0.5 0 0 0 -0.5 -0.5h-4a0.5 0.5 0 0 0 -0.5 0.5zM31.5 1h6a0.5 0.5 0 0 1 0.5 0.5v6a0.5 0.5 0 0 1 -0.5 0.5h-6a0.5 0.5 0 0 1 -0.5 -0.5v-6a0.5 0.5 0 0 1 0.5 -0.5zM32 2.5v4a0.5 0.5 0 0 0 0.5 0.5h4a0.5 0.5 0 0 0 0.5 -0.5v-4a0.5 0.5 0 0 0 -0.5 -0.5h-4a0.5 0.5 0 0 0 -0.5 0.5zM1.5 31h6a0.5 0.5 0 0 1 0.5 0.5v6a0.5 0.5 0 0 1 -0.5 0.5h-6a0.5 0.5 0 0 1 -0.5 -0.5v-6a0.5 0.5 0 0 1 0.5 -0.5zM2 32.5v4a0.5 0.5 0 0 0 0.5 0.5h4a0.5 0.5 0 0 0 0.5 -0.5v-4a0.5 0.5 0 0 0 -0.5 -0.5h-4a0.5 0.5 0 0 0 -0.5 0.5z" fill="#000000"></path><path d="M3.5 3h2a0.5 0.5 0 0 1 0.5 0.5v2a0.5 0.5 0 0 1 -0.5 0.5h-2a0.5 0.5 0 0 1 -0.5 -0.5v-2a0.5 0.5 0 0 1 0.5 -0.5zM33.5 3h2a0.5 0.5 0 0 1 0.5 0.5v2a0.5 0.5 0 0 1 -0.5 0.5h-2a0.5 0.5 0 0 1 -0.5 -0.5v-2a0.5 0.5 0 0 1 0.5 -0.5zM3.5 33h2a0.5 0.5 0 0 1 0.5 0.5v2a0.5 0.5 0 0 1 -0.5 0.5h-2a0.5 0.5 0 0 1 -0.5 -0.5v-2a0.5 0.5 0 0 1 0.5 -0.5z" fill="#000000"></path><path d="M29.5 1a0.5 0.5 0 0 1 0.5 0.5a0.5 0.5 0 0 1 -0.5 0.5a0.5 0.5 0 0 1 -0.5 -0.5a0.5 0.5 0 0 1 0.5 -0.5zM22.5 3a0.5 0.5 0 0 1 0.5 0.5a0.5 0.5 0 0 1 -0.5 0.5a0.5 0.5 0 0 1 -0.5 -0.5a0.5 0.5 0 0 1 0.5 -0.5zM28.5 4a0.5 0.5 0 0 1 0.5 0.5a0.5 0.5 0 0 1 -0.5 0.5a0.5 0.5 0 0 1 -0.5 -0.5a0.5 0.5 0 0 1 0.5 -0.5zM25.5 7a0.5 0.5 0 0 1 0.5 0.5a0.5 0.5 0 0 1 -0.5 0.5a0.5 0.5 0 0 1 -0.5 -0.5a0.5 0.5 0 0 1 0.5 -0.5zM24.5 8a0.5 0.5 0 0 1 0.5 0.5a0.5 0.5 0 0 1 -0.5 0.5a0.5 0.5 0 0 1 -0.5 -0.5a0.5 0.5 0 0 1 0.5 -0.5zM7.5 9a0.5 0.5 0 0 1 0.5 0.5a0.5 0.5 0 0 1 -0.5 0.5a0.5 0.5 0 0 1 -0.5 -0.5a0.5 0.5 0 0 1 0.5 -0.5zM6.5 10a0.5 0.5 0 0 1 0.5 0.5a0.5 0.5 0 0 1 -0.5 0.5a0.5 0.5 0 0 1 -0.5 -0.5a0.5 0.5 0 0 1 0.5 -0.5zM7.5 11a0.5 0.5 0 0 1 0.5 0.5a0.5 0.5 0 0 1 -0.5 0.5a0.5 0.5 0 0 1 -0.5 -0.5a0.5 0.5 0 0 1 0.5 -0.5zM13.5 11a0.5 0.5 0 0 1 0.5 0.5a0.5 0.5 0 0 1 -0.5 0.5a0.5 0.5 0 0 1 -0.5 -0.5a0.5 0.5 0 0 1 0.5 -0.5zM22.5 12a0.5 0.5 0 0 1 0.5 0.5a0.5 0.5 0 0 1 -0.5 0.5a0.5 0.5 0 0 1 -0.5 -0.5a0.5 0.5 0 0 1 0.5 -0.5zM21.5 13a0.5 0.5 0 0 1 0.5 0.5a0.5 0.5 0 0 1 -0.5 0.5a0.5 0.5 0 0 1 -0.5 -0.5a0.5 0.5 0 0 1 0.5 -0.5zM10.5 15a0.5 0.5 0 0 1 0.5 0.5a0.5 0.5 0 0 1 -0.5 0.5a0.5 0.5 0 0 1 -0.5 -0.5a0.5 0.5 0 0 1 0.5 -0.5zM37.5 15a0.5 0.5 0 0 1 0.5 0.5a0.5 0.5 0 0 1 -0.5 0.5a0.5 0.5 0 0 1 -0.5 -0.5a0.5 0.5 0 0 1 0.5 -0.5zM18.5 16a0.5 0.5 0 0 1 0.5 0.5a0.5 0.5 0 0 1 -0.5 0.5a0.5 0.5 0 0 1 -0.5 -0.5a0.5 0.5 0 0 1 0.5 -0.5zM7.5 17a0.5 0.5 0 0 1 0.5 0.5a0.5 0.5 0 0 1 -0.5 0.5a0.5 0.5 0 0 1 -0.5 -0.5a0.5 0.5 0 0 1 0.5 -0.5zM12.5 17a0.5 0.5 0 0 1 0.5 0.5a0.5 0.5 0 0 1 -0.5 0.5a0.5 0.5 0 0 1 -0.5 -0.5a0.5 0.5 0 0 1 0.5 -0.5zM7.5 19a0.5 0.5 0 0 1 0.5 0.5a0.5 0.5 0 0 1 -0.5 0.5a0.5 0.5 0 0 1 -0.5 -0.5a0.5 0.5 0 0 1 0.5 -0.5zM1.5 20a0.5 0.5 0 0 1 0.5 0.5a0.5 0.5 0 0 1 -0.5 0.5a0.5 0.5 0 0 1 -0.5 -0.5a0.5 0.5 0 0 1 0.5 -0.5zM11.5 21a0.5 0.5 0 0 1 0.5 0.5a0.5 0.5 0 0 1 -0.5 0.5a0.5 0.5 0 0 1 -0.5 -0.5a0.5 0.5 0 0 1 0.5 -0.5zM4.5 23a0.5 0.5 0 0 1 0.5 0.5a0.5 0.5 0 0 1 -0.5 0.5a0.5 0.5 0 0 1 -0.5 -0.5a0.5 0.5 0 0 1 0.5 -0.5zM32.5 24a0.5 0.5 0 0 1 0.5 0.5a0.5 0.5 0 0 1 -0.5 0.5a0.5 0.5 0 0 1 -0.5 -0.5a0.5 0.5 0 0 1 0.5 -0.5zM7.5 25a0.5 0.5 0 0 1 0.5 0.5a0.5 0.5 0 0 1 -0.5 0.5a0.5 0.5 0 0 1 -0.5 -0.5a0.5 0.5 0 0 1 0.5 -0.5zM25.5 26a0.5 0.5 0 0 1 0.5 0.5a0.5 0.5 0 0 1 -0.5 0.5a0.5 0.5 0 0 1 -0.5 -0.5a0.5 0.5 0 0 1 0.5 -0.5zM5.5 27a0.5 0.5 0 0 1 0.5 0.5a0.5 0.5 0 0 1 -0.5 0.5a0.5 0.5 0 0 1 -0.5 -0.5a0.5 0.5 0 0 1 0.5 -0.5zM6.5 28a0.5 0.5 0 0 1 0.5 0.5a0.5 0.5 0 0 1 -0.5 0.5a0.5 0.5 0 0 1 -0.5 -0.5a0.5 0.5 0 0 1 0.5 -0.5zM15.5 28a0.5 0.5 0 0 1 0.5 0.5a0.5 0.5 0 0 1 -0.5 0.5a0.5 0.5 0 0 1 -0.5 -0.5a0.5 0.5 0 0 1 0.5 -0.5zM13.5 29a0.5 0.5 0 0 1 0.5 0.5a0.5 0.5 0 0 1 -0.5 0.5a0.5 0.5 0 0 1 -0.5 -0.5a0.5 0.5 0 0 1 0.5 -0.5zM21.5 29a0.5 0.5 0 0 1 0.5 0.5a0.5 0.5 0 0 1 -0.5 0.5a0.5 0.5 0 0 1 -0.5 -0.5a0.5 0.5 0 0 1 0.5 -0.5zM12.5 30a0.5 0.5 0 0 1 0.5 0.5a0.5 0.5 0 0 1 -0.5 0.5a0.5 0.5 0 0 1 -0.5 -0.5a0.5 0.5 0 0 1 0.5 -0.5zM15.5 30a0.5 0.5 0 0 1 0.5 0.5a0.5 0.5 0 0 1 -0.5 0.5a0.5 0.5 0 0 1 -0.5 -0.5a0.5 0.5 0 0 1 0.5 -0.5zM22.5 30a0.5 0.5 0 0 1 0.5 0.5a0.5 0.5 0 0 1 -0.5 0.5a0.5 0.5 0 0 1 -0.5 -0.5a0.5 0.5 0 0 1 0.5 -0.5zM24.5 30a0.5 0.5 0 0 1 0.5 0.5a0.5 0.5 0 0 1 -0.5 0.5a0.5 0.5 0 0 1 -0.5 -0.5a0.5 0.5 0 0 1 0.5 -0.5zM10.5 31a0.5 0.5 0 0 1 0.5 0.5a0.5 0.5 0 0 1 -0.5 0.5a0.5 0.5 0 0 1 -0.5 -0.5a0.5 0.5 0 0 1 0.5 -0.5zM13.5 31a0.5 0.5 0 0 1 0.5 0.5a0.5 0.5 0 0 1 -0.5 0.5a0.5 0.5 0 0 1 -0.5 -0.5a0.5 0.5 0 0 1 0.5 -0.5zM31.5 31a0.5 0.5 0 0 1 0.5 0.5a0.5 0.5 0 0 1 -0.5 0.5a0.5 0.5 0 0 1 -0.5 -0.5a0.5 0.5 0 0 1 0.5 -0.5zM14.5 32a0.5 0.5 0 0 1 0.5 0.5a0.5 0.5 0 0 1 -0.5 0.5a0.5 0.5 0 0 1 -0.5 -0.5a0.5 0.5 0 0 1 0.5 -0.5zM27.5 32a0.5 0.5 0 0 1 0.5 0.5a0.5 0.5 0 0 1 -0.5 0.5a0.5 0.5 0 0 1 -0.5 -0.5a0.5 0.5 0 0 1 0.5 -0.5zM16.5 34a0.5 0.5 0 0 1 0.5 0.5a0.5 0.5 0 0 1 -0.5 0.5a0.5 0.5 0 0 1 -0.5 -0.5a0.5 0.5 0 0 1 0.5 -0.5zM12.5 35a0.5 0.5 0 0 1 0.5 0.5a0.5 0.5 0 0 1 -0.5 0.5a0.5 0.5 0 0 1 -0.5 -0.5a0.5 0.5 0 0 1 0.5 -0.5zM17.5 35a0.5 0.5 0 0 1 0.5 0.5a0.5 0.5 0 0 1 -0.5 0.5a0.5 0.5 0 0 1 -0.5 -0.5a0.5 0.5 0 0 1 0.5 -0.5zM22.5 35a0.5 0.5 0 0 1 0.5 0.5a0.5 0.5 0 0 1 -0.5 0.5a0.5 0.5 0 0 1 -0.5 -0.5a0.5 0.5 0 0 1 0.5 -0.5zM34.5 35a0.5 0.5 0 0 1 0.5 0.5a0.5 0.5 0 0 1 -0.5 0.5a0.5 0.5 0 0 1 -0.5 -0.5a0.5 0.5 0 0 1 0.5 -0.5zM11.5 37a0.5 0.5 0 0 1 0.5 0.5a0.5 0.5 0 0 1 -0.5 0.5a0.5 0.5 0 0 1 -0.5 -0.5a0.5 0.5 0 0 1 0.5 -0.5z" fill="#000000"></path><path d="M9.5 1a0.5 0.5 0 0 1 0.5 0.5a0.5 0.5 0 0 0 0.5 0.5a0.5 0.5 0 0 0 0.5 -0.5a0.5 0.5 0 0 1 0.5 -0.5a0.5 0.5 0 0 1 0.5 0.5a0.5 0.5 0 0 0 0.5 0.5a0.5 0.5 0 0 0 0.5 -0.5a0.5 0.5 0 0 1 0.5 -0.5h3a0.5 0.5 0 0 1 0.5 0.5a0.5 0.5 0 0 1 -0.5 0.5h-2a0.5 0.5 0 0 0 -0.5 0.5v1a0.5 0.5 0 0 0 0.5 0.5h1a0.5 0.5 0 0 0 0.5 -0.5a0.5 0.5 0 0 1 0.5 -0.5a0.5 0.5 0 0 1 0.5 0.5v1a0.5 0.5 0 0 0 0.5 0.5a0.5 0.5 0 0 1 0.5 0.5a0.5 0.5 0 0 1 -0.5 0.5a0.5 0.5 0 0 0 -0.5 0.5a0.5 0.5 0 0 1 -0.5 0.5a0.5 0.5 0 0 1 -0.5 -0.5v-1a0.5 0.5 0 0 0 -0.5 -0.5h-2a0.5 0.5 0 0 0 -0.5 0.5a0.5 0.5 0 0 1 -0.5 0.5a0.5 0.5 0 0 0 -0.5 0.5v3a0.5 0.5 0 0 1 -0.5 0.5a0.5 0.5 0 0 0 -0.5 0.5a0.5 0.5 0 0 1 -0.5 0.5a0.5 0.5 0 0 1 -0.5 -0.5a0.5 0.5 0 0 0 -0.5 -0.5a0.5 0.5 0 0 1 -0.5 -0.5v-3a0.5 0.5 0 0 1 0.5 -0.5a0.5 0.5 0 0 1 0.5 0.5v1a0.5 0.5 0 0 0 0.5 0.5a0.5 0.5 0 0 0 0.5 -0.5v-2a0.5 0.5 0 0 0 -0.5 -0.5a0.5 0.5 0 0 1 -0.5 -0.5a0.5 0.5 0 0 0 -0.5 -0.5a0.5 0.5 0 0 1 -0.5 -0.5v-2a0.5 0.5 0 0 1 0.5 -0.5zM22.5 1h2a0.5 0.5 0 0 1 0.5 0.5v1a0.5 0.5 0 0 0 0.5 0.5a0.5 0.5 0 0 1 0.5 0.5a0.5 0.5 0 0 0 0.5 0.5a0.5 0.5 0 0 1 0.5 0.5a0.5 0.5 0 0 1 -0.5 0.5h-1a0.5 0.5 0 0 1 -0.5 -0.5a0.5 0.5 0 0 0 -0.5 -0.5a0.5 0.5 0 0 1 -0.5 -0.5a0.5 0.5 0 0 0 -0.5 -0.5a0.5 0.5 0 0 1 -0.5 -0.5a0.5 0.5 0 0 0 -0.5 -0.5a0.5 0.5 0 0 1 -0.5 -0.5a0.5 0.5 0 0 1 0.5 -0.5zM26.5 1a0.5 0.5 0 0 1 0.5 0.5a0.5 0.5 0 0 0 0.5 0.5h1a0.5 0.5 0 0 1 0.5 0.5a0.5 0.5 0 0 1 -0.5 0.5a0.5 0.5 0 0 0 -0.5 0.5a0.5 0.5 0 0 1 -0.5 0.5a0.5 0.5 0 0 1 -0.5 -0.5a0.5 0.5 0 0 0 -0.5 -0.5a0.5 0.5 0 0 1 -0.5 -0.5v-1a0.5 0.5 0 0 1 0.5 -0.5zM17.5 2h1a0.5 0.5 0 0 1 0.5 0.5v1a0.5 0.5 0 0 1 -0.5 0.5a0.5 0.5 0 0 1 -0.5 -0.5a0.5 0.5 0 0 0 -0.5 -0.5a0.5 0.5 0 0 1 -0.5 -0.5a0.5 0.5 0 0 1 0.5 -0.5zM20.5 2h1a0.5 0.5 0 0 1 0.5 0.5a0.5 0.5 0 0 1 -0.5 0.5a0.5 0.5 0 0 0 -0.5 0.5a0.5 0.5 0 0 1 -0.5 0.5a0.5 0.5 0 0 1 -0.5 -0.5v-1a0.5 0.5 0 0 1 0.5 -0.5zM19.5 4a0.5 0.5 0 0 1 0.5 0.5a0.5 0.5 0 0 0 0.5 0.5a0.5 0.5 0 0 1 0.5 0.5a0.5 0.5 0 0 1 -0.5 0.5h-1a0.5 0.5 0 0 1 -0.5 -0.5v-1a0.5 0.5 0 0 1 0.5 -0.5zM21.5 6a0.5 0.5 0 0 1 0.5 0.5v2a0.5 0.5 0 0 1 -0.5 0.5a0.5 0.5 0 0 1 -0.5 -0.5v-2a0.5 0.5 0 0 1 0.5 -0.5zM23.5 6a0.5 0.5 0 0 1 0.5 0.5v1a0.5 0.5 0 0 1 -0.5 0.5a0.5 0.5 0 0 1 -0.5 -0.5v-1a0.5 0.5 0 0 1 0.5 -0.5zM27.5 6h2a0.5 0.5 0 0 1 0.5 0.5v2a0.5 0.5 0 0 1 -0.5 0.5a0.5 0.5 0 0 1 -0.5 -0.5v-1a0.5 0.5 0 0 0 -0.5 -0.5a0.5 0.5 0 0 0 -0.5 0.5a0.5 0.5 0 0 1 -0.5 0.5a0.5 0.5 0 0 1 -0.5 -0.5v-1a0.5 0.5 0 0 1 0.5 -0.5zM13.5 7a0.5 0.5 0 0 1 0.5 0.5v1a0.5 0.5 0 0 1 -0.5 0.5a0.5 0.5 0 0 1 -0.5 -0.5v-1a0.5 0.5 0 0 1 0.5 -0.5zM15.5 7a0.5 0.5 0 0 1 0.5 0.5a0.5 0.5 0 0 0 0.5 0.5a0.5 0.5 0 0 0 0.5 -0.5a0.5 0.5 0 0 1 0.5 -0.5a0.5 0.5 0 0 1 0.5 0.5v1a0.5 0.5 0 0 1 -0.5 0.5h-2a0.5 0.5 0 0 1 -0.5 -0.5v-1a0.5 0.5 0 0 1 0.5 -0.5zM19.5 7a0.5 0.5 0 0 1 0.5 0.5v2a0.5 0.5 0 0 1 -0.5 0.5a0.5 0.5 0 0 1 -0.5 -0.5v-2a0.5 0.5 0 0 1 0.5 -0.5zM3.5 9h2a0.5 0.5 0 0 1 0.5 0.5a0.5 0.5 0 0 1 -0.5 0.5a0.5 0.5 0 0 0 -0.5 0.5a0.5 0.5 0 0 1 -0.5 0.5h-1a0.5 0.5 0 0 1 -0.5 -0.5v-1a0.5 0.5 0 0 1 0.5 -0.5zM14.5 9a0.5 0.5 0 0 1 0.5 0.5a0.5 0.5 0 0 0 0.5 0.5a0.5 0.5 0 0 1 0.5 0.5v1a0.5 0.5 0 0 1 -0.5 0.5a0.5 0.5 0 0 1 -0.5 -0.5a0.5 0.5 0 0 0 -0.5 -0.5a0.5 0.5 0 0 1 -0.5 -0.5v-1a0.5 0.5 0 0 1 0.5 -0.5zM22.5 9h1a0.5 0.5 0 0 1 0.5 0.5a0.5 0.5 0 0 0 0.5 0.5a0.5 0.5 0 0 1 0.5 0.5a0.5 0.5 0 0 1 -0.5 0.5a0.5 0.5 0 0 0 -0.5 0.5a0.5 0.5 0 0 1 -0.5 0.5a0.5 0.5 0 0 1 -0.5 -0.5a0.5 0.5 0 0 0 -0.5 -0.5a0.5 0.5 0 0 1 -0.5 -0.5v-1a0.5 0.5 0 0 1 0.5 -0.5zM25.5 9h2a0.5 0.5 0 0 1 0.5 0.5a0.5 0.5 0 0 1 -0.5 0.5a0.5 0.5 0 0 0 -0.5 0.5a0.5 0.5 0 0 0 0.5 0.5h1a0.5 0.5 0 0 0 0.5 -0.5a0.5 0.5 0 0 1 0.5 -0.5a0.5 0.5 0 0 1 0.5 0.5v1a0.5 0.5 0 0 1 -0.5 0.5a0.5 0.5 0 0 0 -0.5 0.5a0.5 0.5 0 0 1 -0.5 0.5a0.5 0.5 0 0 0 -0.5 0.5v1a0.5 0.5 0 0 0 0.5 0.5a0.5 0.5 0 0 1 0.5 0.5a0.5 0.5 0 0 0 0.5 0.5a0.5 0.5 0 0 0 0.5 -0.5a0.5 0.5 0 0 0 -0.5 -0.5a0.5 0.5 0 0 1 -0.5 -0.5a0.5 0.5 0 0 1 0.5 -0.5a0.5 0.5 0 0 0 0.5 -0.5a0.5 0.5 0 0 1 0.5 -0.5a0.5 0.5 0 0 0 0.5 -0.5v-1a0.5 0.5 0 0 1 0.5 -0.5a0.5 0.5 0 0 0 0.5 -0.5a0.5 0.5 0 0 0 -0.5 -0.5h-1a0.5 0.5 0 0 1 -0.5 -0.5a0.5 0.5 0 0 1 0.5 -0.5h2a0.5 0.5 0 0 1 0.5 0.5v2a0.5 0.5 0 0 0 0.5 0.5a0.5 0.5 0 0 1 0.5 0.5v1a0.5 0.5 0 0 1 -0.5 0.5a0.5 0.5 0 0 1 -0.5 -0.5a0.5 0.5 0 0 0 -0.5 -0.5a0.5 0.5 0 0 0 -0.5 0.5a0.5 0.5 0 0 1 -0.5 0.5a0.5 0.5 0 0 0 -0.5 0.5a0.5 0.5 0 0 0 0.5 0.5a0.5 0.5 0 0 0 0.5 -0.5a0.5 0.5 0 0 1 0.5 -0.5a0.5 0.5 0 0 1 0.5 0.5a0.5 0.5 0 0 0 0.5 0.5a0.5 0.5 0 0 0 0.5 -0.5a0.5 0.5 0 0 1 0.5 -0.5a0.5 0.5 0 0 0 0.5 -0.5a0.5 0.5 0 0 1 0.5 -0.5a0.5 0.5 0 0 0 0.5 -0.5v-2a0.5 0.5 0 0 0 -0.5 -0.5a0.5 0.5 0 0 1 -0.5 -0.5a0.5 0.5 0 0 1 0.5 -0.5h2a0.5 0.5 0 0 1 0.5 0.5a0.5 0.5 0 0 1 -0.5 0.5a0.5 0.5 0 0 0 -0.5 0.5a0.5 0.5 0 0 0 0.5 0.5a0.5 0.5 0 0 1 0.5 0.5a0.5 0.5 0 0 1 -0.5 0.5a0.5 0.5 0 0 0 -0.5 0.5v1a0.5 0.5 0 0 1 -0.5 0.5a0.5 0.5 0 0 0 -0.5 0.5a0.5 0.5 0 0 1 -0.5 0.5a0.5 0.5 0 0 0 -0.5 0.5a0.5 0.5 0 0 1 -0.5 0.5a0.5 0.5 0 0 0 -0.5 0.5v1a0.5 0.5 0 0 1 -0.5 0.5a0.5 0.5 0 0 1 -0.5 -0.5a0.5 0.5 0 0 0 -0.5 -0.5a0.5 0.5 0 0 1 -0.5 -0.5a0.5 0.5 0 0 0 -0.5 -0.5a0.5 0.5 0 0 0 -0.5 0.5a0.5 0.5 0 0 0 0.5 0.5a0.5 0.5 0 0 1 0.5 0.5a0.5 0.5 0 0 1 -0.5 0.5h-1a0.5 0.5 0 0 0 -0.5 0.5a0.5 0.5 0 0 1 -0.5 0.5a0.5 0.5 0 0 1 -0.5 -0.5a0.5 0.5 0 0 0 -0.5 -0.5a0.5 0.5 0 0 0 -0.5 0.5a0.5 0.5 0 0 0 0.5 0.5a0.5 0.5 0 0 1 0.5 0.5v2a0.5 0.5 0 0 1 -0.5 0.5h-3a0.5 0.5 0 0 1 -0.5 -0.5v-1a0.5 0.5 0 0 0 -0.5 -0.5a0.5 0.5 0 0 1 -0.5 -0.5a0.5 0.5 0 0 1 0.5 -0.5a0.5 0.5 0 0 0 0.5 -0.5a0.5 0.5 0 0 0 -0.5 -0.5a0.5 0.5 0 0 0 -0.5 0.5a0.5 0.5 0 0 1 -0.5 0.5h-2a0.5 0.5 0 0 0 -0.5 0.5v1a0.5 0.5 0 0 1 -0.5 0.5a0.5 0.5 0 0 1 -0.5 -0.5v-2a0.5 0.5 0 0 1 0.5 -0.5h2a0.5 0.5 0 0 0 0.5 -0.5a0.5 0.5 0 0 0 -0.5 -0.5h-1a0.5 0.5 0 0 1 -0.5 -0.5v-1a0.5 0.5 0 0 1 0.5 -0.5a0.5 0.5 0 0 1 0.5 0.5a0.5 0.5 0 0 0 0.5 0.5h2a0.5 0.5 0 0 1 0.5 0.5a0.5 0.5 0 0 0 0.5 0.5h1a0.5 0.5 0 0 0 0.5 -0.5v-2a0.5 0.5 0 0 0 -0.5 -0.5h-1a0.5 0.5 0 0 0 -0.5 0.5a0.5 0.5 0 0 1 -0.5 0.5h-2a0.5 0.5 0 0 1 -0.5 -0.5a0.5 0.5 0 0 1 0.5 -0.5a0.5 0.5 0 0 0 0.5 -0.5a0.5 0.5 0 0 1 0.5 -0.5h3a0.5 0.5 0 0 0 0.5 -0.5a0.5 0.5 0 0 0 -0.5 -0.5h-1a0.5 0.5 0 0 1 -0.5 -0.5a0.5 0.5 0 0 1 0.5 -0.5a0.5 0.5 0 0 0 0.5 -0.5a0.5 0.5 0 0 0 -0.5 -0.5a0.5 0.5 0 0 1 -0.5 -0.5a0.5 0.5 0 0 1 0.5 -0.5zM1.5 10a0.5 0.5 0 0 1 0.5 0.5a0.5 0.5 0 0 0 0.5 0.5a0.5 0.5 0 0 1 0.5 0.5a0.5 0.5 0 0 1 -0.5 0.5h-1a0.5 0.5 0 0 1 -0.5 -0.5v-1a0.5 0.5 0 0 1 0.5 -0.5zM17.5 10a0.5 0.5 0 0 1 0.5 0.5a0.5 0.5 0 0 0 0.5 0.5h1a0.5 0.5 0 0 0 0.5 -0.5a0.5 0.5 0 0 1 0.5 -0.5a0.5 0.5 0 0 1 0.5 0.5a0.5 0.5 0 0 0 0.5 0.5a0.5 0.5 0 0 1 0.5 0.5a0.5 0.5 0 0 1 -0.5 0.5a0.5 0.5 0 0 0 -0.5 0.5a0.5 0.5 0 0 1 -0.5 0.5a0.5 0.5 0 0 1 -0.5 -0.5a0.5 0.5 0 0 0 -0.5 -0.5h-1a0.5 0.5 0 0 0 -0.5 0.5a0.5 0.5 0 0 1 -0.5 0.5a0.5 0.5 0 0 0 -0.5 0.5a0.5 0.5 0 0 0 0.5 0.5h3a0.5 0.5 0 0 1 0.5 0.5a0.5 0.5 0 0 1 -0.5 0.5h-2a0.5 0.5 0 0 0 -0.5 0.5a0.5 0.5 0 0 1 -0.5 0.5h-1a0.5 0.5 0 0 1 -0.5 -0.5v-1a0.5 0.5 0 0 0 -0.5 -0.5a0.5 0.5 0 0 1 -0.5 -0.5a0.5 0.5 0 0 1 0.5 -0.5a0.5 0.5 0 0 0 0.5 -0.5a0.5 0.5 0 0 1 0.5 -0.5a0.5 0.5 0 0 0 0.5 -0.5v-1a0.5 0.5 0 0 1 0.5 -0.5zM34.5 10a0.5 0.5 0 0 1 0.5 0.5v1a0.5 0.5 0 0 1 -0.5 0.5a0.5 0.5 0 0 1 -0.5 -0.5v-1a0.5 0.5 0 0 1 0.5 -0.5zM9.5 11a0.5 0.5 0 0 1 0.5 0.5v2a0.5 0.5 0 0 1 -0.5 0.5a0.5 0.5 0 0 1 -0.5 -0.5a0.5 0.5 0 0 0 -0.5 -0.5a0.5 0.5 0 0 1 -0.5 -0.5a0.5 0.5 0 0 1 0.5 -0.5a0.5 0.5 0 0 0 0.5 -0.5a0.5 0.5 0 0 1 0.5 -0.5zM1.5 13h2a0.5 0.5 0 0 1 0.5 0.5v1a0.5 0.5 0 0 1 -0.5 0.5h-2a0.5 0.5 0 0 1 -0.5 -0.5v-1a0.5 0.5 0 0 1 0.5 -0.5zM6.5 13h1a0.5 0.5 0 0 1 0.5 0.5a0.5 0.5 0 0 1 -0.5 0.5a0.5 0.5 0 0 0 -0.5 0.5a0.5 0.5 0 0 1 -0.5 0.5h-1a0.5 0.5 0 0 1 -0.5 -0.5a0.5 0.5 0 0 1 0.5 -0.5a0.5 0.5 0 0 0 0.5 -0.5a0.5 0.5 0 0 1 0.5 -0.5zM11.5 13h1a0.5 0.5 0 0 1 0.5 0.5a0.5 0.5 0 0 0 0.5 0.5h1a0.5 0.5 0 0 1 0.5 0.5v1a0.5 0.5 0 0 1 -0.5 0.5a0.5 0.5 0 0 1 -0.5 -0.5a0.5 0.5 0 0 0 -0.5 -0.5a0.5 0.5 0 0 0 -0.5 0.5a0.5 0.5 0 0 1 -0.5 0.5a0.5 0.5 0 0 1 -0.5 -0.5a0.5 0.5 0 0 0 -0.5 -0.5a0.5 0.5 0 0 1 -0.5 -0.5v-1a0.5 0.5 0 0 1 0.5 -0.5zM4.5 15a0.5 0.5 0 0 1 0.5 0.5a0.5 0.5 0 0 0 0.5 0.5h1a0.5 0.5 0 0 1 0.5 0.5a0.5 0.5 0 0 1 -0.5 0.5a0.5 0.5 0 0 0 -0.5 0.5a0.5 0.5 0 0 0 0.5 0.5a0.5 0.5 0 0 1 0.5 0.5a0.5 0.5 0 0 1 -0.5 0.5a0.5 0.5 0 0 0 -0.5 0.5v1a0.5 0.5 0 0 0 0.5 0.5h1a0.5 0.5 0 0 1 0.5 0.5a0.5 0.5 0 0 1 -0.5 0.5a0.5 0.5 0 0 0 -0.5 0.5a0.5 0.5 0 0 1 -0.5 0.5h-1a0.5 0.5 0 0 1 -0.5 -0.5a0.5 0.5 0 0 0 -0.5 -0.5h-1a0.5 0.5 0 0 1 -0.5 -0.5a0.5 0.5 0 0 1 0.5 -0.5a0.5 0.5 0 0 0 0.5 -0.5a0.5 0.5 0 0 1 0.5 -0.5a0.5 0.5 0 0 0 0.5 -0.5v-1a0.5 0.5 0 0 0 -0.5 -0.5a0.5 0.5 0 0 1 -0.5 -0.5v-2a0.5 0.5 0 0 1 0.5 -0.5zM7.5 15h1a0.5 0.5 0 0 1 0.5 0.5v1a0.5 0.5 0 0 1 -0.5 0.5a0.5 0.5 0 0 1 -0.5 -0.5a0.5 0.5 0 0 0 -0.5 -0.5a0.5 0.5 0 0 1 -0.5 -0.5a0.5 0.5 0 0 1 0.5 -0.5zM1.5 16a0.5 0.5 0 0 1 0.5 0.5a0.5 0.5 0 0 0 0.5 0.5a0.5 0.5 0 0 1 0.5 0.5a0.5 0.5 0 0 0 0.5 0.5a0.5 0.5 0 0 1 0.5 0.5a0.5 0.5 0 0 1 -0.5 0.5a0.5 0.5 0 0 0 -0.5 0.5a0.5 0.5 0 0 1 -0.5 0.5a0.5 0.5 0 0 1 -0.5 -0.5v-1a0.5 0.5 0 0 0 -0.5 -0.5a0.5 0.5 0 0 1 -0.5 -0.5v-1a0.5 0.5 0 0 1 0.5 -0.5zM15.5 16a0.5 0.5 0 0 1 0.5 0.5a0.5 0.5 0 0 0 0.5 0.5a0.5 0.5 0 0 1 0.5 0.5v1a0.5 0.5 0 0 0 0.5 0.5a0.5 0.5 0 0 0 0.5 -0.5a0.5 0.5 0 0 1 0.5 -0.5a0.5 0.5 0 0 1 0.5 0.5v1a0.5 0.5 0 0 1 -0.5 0.5a0.5 0.5 0 0 0 -0.5 0.5a0.5 0.5 0 0 0 0.5 0.5h1a0.5 0.5 0 0 1 0.5 0.5a0.5 0.5 0 0 1 -0.5 0.5a0.5 0.5 0 0 0 -0.5 0.5v1a0.5 0.5 0 0 1 -0.5 0.5a0.5 0.5 0 0 1 -0.5 -0.5v-1a0.5 0.5 0 0 0 -0.5 -0.5a0.5 0.5 0 0 1 -0.5 -0.5a0.5 0.5 0 0 0 -0.5 -0.5a0.5 0.5 0 0 0 -0.5 0.5a0.5 0.5 0 0 0 0.5 0.5a0.5 0.5 0 0 1 0.5 0.5v1a0.5 0.5 0 0 1 -0.5 0.5a0.5 0.5 0 0 1 -0.5 -0.5a0.5 0.5 0 0 0 -0.5 -0.5a0.5 0.5 0 0 1 -0.5 -0.5a0.5 0.5 0 0 0 -0.5 -0.5h-1a0.5 0.5 0 0 1 -0.5 -0.5a0.5 0.5 0 0 1 0.5 -0.5h1a0.5 0.5 0 0 0 0.5 -0.5a0.5 0.5 0 0 0 -0.5 -0.5a0.5 0.5 0 0 1 -0.5 -0.5v-2a0.5 0.5 0 0 1 0.5 -0.5a0.5 0.5 0 0 0 0.5 -0.5a0.5 0.5 0 0 1 0.5 -0.5zM36.5 16a0.5 0.5 0 0 1 0.5 0.5a0.5 0.5 0 0 0 0.5 0.5a0.5 0.5 0 0 1 0.5 0.5a0.5 0.5 0 0 1 -0.5 0.5h-1a0.5 0.5 0 0 0 -0.5 0.5a0.5 0.5 0 0 0 0.5 0.5h1a0.5 0.5 0 0 1 0.5 0.5a0.5 0.5 0 0 1 -0.5 0.5h-3a0.5 0.5 0 0 1 -0.5 -0.5a0.5 0.5 0 0 1 0.5 -0.5a0.5 0.5 0 0 0 0.5 -0.5v-1a0.5 0.5 0 0 1 0.5 -0.5a0.5 0.5 0 0 0 0.5 -0.5a0.5 0.5 0 0 1 0.5 -0.5zM9.5 17h1a0.5 0.5 0 0 1 0.5 0.5a0.5 0.5 0 0 1 -0.5 0.5a0.5 0.5 0 0 0 -0.5 0.5a0.5 0.5 0 0 1 -0.5 0.5a0.5 0.5 0 0 1 -0.5 -0.5v-1a0.5 0.5 0 0 1 0.5 -0.5zM11.5 18a0.5 0.5 0 0 1 0.5 0.5a0.5 0.5 0 0 0 0.5 0.5a0.5 0.5 0 0 1 0.5 0.5v1a0.5 0.5 0 0 1 -0.5 0.5a0.5 0.5 0 0 1 -0.5 -0.5a0.5 0.5 0 0 0 -0.5 -0.5a0.5 0.5 0 0 1 -0.5 -0.5v-1a0.5 0.5 0 0 1 0.5 -0.5zM15 18.5a0.5 0.5 0 0 0 0.5 0.5a0.5 0.5 0 0 0 0.5 -0.5a0.5 0.5 0 0 0 -0.5 -0.5a0.5 0.5 0 0 0 -0.5 0.5zM32.5 18a0.5 0.5 0 0 1 0.5 0.5v1a0.5 0.5 0 0 1 -0.5 0.5h-1a0.5 0.5 0 0 0 -0.5 0.5a0.5 0.5 0 0 0 0.5 0.5h1a0.5 0.5 0 0 0 0.5 -0.5a0.5 0.5 0 0 1 0.5 -0.5a0.5 0.5 0 0 1 0.5 0.5a0.5 0.5 0 0 0 0.5 0.5h1a0.5 0.5 0 0 1 0.5 0.5a0.5 0.5 0 0 1 -0.5 0.5a0.5 0.5 0 0 0 -0.5 0.5a0.5 0.5 0 0 0 0.5 0.5a0.5 0.5 0 0 0 0.5 -0.5a0.5 0.5 0 0 1 0.5 -0.5a0.5 0.5 0 0 1 0.5 0.5a0.5 0.5 0 0 0 0.5 0.5a0.5 0.5 0 0 1 0.5 0.5a0.5 0.5 0 0 1 -0.5 0.5a0.5 0.5 0 0 0 -0.5 0.5v1a0.5 0.5 0 0 1 -0.5 0.5h-1a0.5 0.5 0 0 0 -0.5 0.5v1a0.5 0.5 0 0 1 -0.5 0.5a0.5 0.5 0 0 1 -0.5 -0.5v-1a0.5 0.5 0 0 0 -0.5 -0.5a0.5 0.5 0 0 1 -0.5 -0.5a0.5 0.5 0 0 1 0.5 -0.5h2a0.5 0.5 0 0 0 0.5 -0.5a0.5 0.5 0 0 0 -0.5 -0.5h-1a0.5 0.5 0 0 1 -0.5 -0.5v-1a0.5 0.5 0 0 0 -0.5 -0.5a0.5 0.5 0 0 0 -0.5 0.5a0.5 0.5 0 0 1 -0.5 0.5a0.5 0.5 0 0 1 -0.5 -0.5a0.5 0.5 0 0 0 -0.5 -0.5h-1a0.5 0.5 0 0 1 -0.5 -0.5v-2a0.5 0.5 0 0 1 0.5 -0.5h1a0.5 0.5 0 0 0 0.5 -0.5a0.5 0.5 0 0 1 0.5 -0.5zM9.5 20h1a0.5 0.5 0 0 1 0.5 0.5a0.5 0.5 0 0 1 -0.5 0.5a0.5 0.5 0 0 0 -0.5 0.5a0.5 0.5 0 0 1 -0.5 0.5a0.5 0.5 0 0 1 -0.5 -0.5v-1a0.5 0.5 0 0 1 0.5 -0.5zM22.5 20a0.5 0.5 0 0 1 0.5 0.5a0.5 0.5 0 0 0 0.5 0.5a0.5 0.5 0 0 1 0.5 0.5a0.5 0.5 0 0 1 -0.5 0.5h-1a0.5 0.5 0 0 1 -0.5 -0.5v-1a0.5 0.5 0 0 1 0.5 -0.5zM26 20.5a0.5 0.5 0 0 0 0.5 0.5a0.5 0.5 0 0 0 0.5 -0.5a0.5 0.5 0 0 0 -0.5 -0.5a0.5 0.5 0 0 0 -0.5 0.5zM8.5 22a0.5 0.5 0 0 1 0.5 0.5a0.5 0.5 0 0 0 0.5 0.5a0.5 0.5 0 0 0 0.5 -0.5a0.5 0.5 0 0 1 0.5 -0.5a0.5 0.5 0 0 1 0.5 0.5v1a0.5 0.5 0 0 1 -0.5 0.5a0.5 0.5 0 0 0 -0.5 0.5v1a0.5 0.5 0 0 1 -0.5 0.5a0.5 0.5 0 0 1 -0.5 -0.5a0.5 0.5 0 0 0 -0.5 -0.5a0.5 0.5 0 0 1 -0.5 -0.5a0.5 0.5 0 0 0 -0.5 -0.5a0.5 0.5 0 0 1 -0.5 -0.5a0.5 0.5 0 0 1 0.5 -0.5a0.5 0.5 0 0 0 0.5 -0.5a0.5 0.5 0 0 1 0.5 -0.5zM12.5 22a0.5 0.5 0 0 1 0.5 0.5a0.5 0.5 0 0 0 0.5 0.5a0.5 0.5 0 0 1 0.5 0.5a0.5 0.5 0 0 0 0.5 0.5a0.5 0.5 0 0 1 0.5 0.5a0.5 0.5 0 0 1 -0.5 0.5a0.5 0.5 0 0 0 -0.5 0.5a0.5 0.5 0 0 0 0.5 0.5a0.5 0.5 0 0 1 0.5 0.5v1a0.5 0.5 0 0 1 -0.5 0.5h-1a0.5 0.5 0 0 1 -0.5 -0.5a0.5 0.5 0 0 0 -0.5 -0.5a0.5 0.5 0 0 0 -0.5 0.5a0.5 0.5 0 0 0 0.5 0.5a0.5 0.5 0 0 1 0.5 0.5a0.5 0.5 0 0 1 -0.5 0.5a0.5 0.5 0 0 0 -0.5 0.5a0.5 0.5 0 0 1 -0.5 0.5a0.5 0.5 0 0 1 -0.5 -0.5a0.5 0.5 0 0 0 -0.5 -0.5a0.5 0.5 0 0 0 -0.5 0.5v1a0.5 0.5 0 0 1 -0.5 0.5a0.5 0.5 0 0 1 -0.5 -0.5a0.5 0.5 0 0 0 -0.5 -0.5h-1a0.5 0.5 0 0 1 -0.5 -0.5a0.5 0.5 0 0 1 0.5 -0.5h1a0.5 0.5 0 0 0 0.5 -0.5a0.5 0.5 0 0 1 0.5 -0.5a0.5 0.5 0 0 0 0.5 -0.5v-1a0.5 0.5 0 0 1 0.5 -0.5a0.5 0.5 0 0 0 0.5 -0.5a0.5 0.5 0 0 1 0.5 -0.5h1a0.5 0.5 0 0 0 0.5 -0.5a0.5 0.5 0 0 0 -0.5 -0.5a0.5 0.5 0 0 1 -0.5 -0.5v-1a0.5 0.5 0 0 1 0.5 -0.5zM21.5 22a0.5 0.5 0 0 1 0.5 0.5v1a0.5 0.5 0 0 1 -0.5 0.5a0.5 0.5 0 0 1 -0.5 -0.5v-1a0.5 0.5 0 0 1 0.5 -0.5zM24.5 22a0.5 0.5 0 0 1 0.5 0.5v2a0.5 0.5 0 0 1 -0.5 0.5h-1a0.5 0.5 0 0 1 -0.5 -0.5v-1a0.5 0.5 0 0 1 0.5 -0.5a0.5 0.5 0 0 0 0.5 -0.5a0.5 0.5 0 0 1 0.5 -0.5zM1.5 23h1a0.5 0.5 0 0 1 0.5 0.5a0.5 0.5 0 0 0 0.5 0.5a0.5 0.5 0 0 1 0.5 0.5a0.5 0.5 0 0 1 -0.5 0.5h-1a0.5 0.5 0 0 1 -0.5 -0.5a0.5 0.5 0 0 0 -0.5 -0.5a0.5 0.5 0 0 1 -0.5 -0.5a0.5 0.5 0 0 1 0.5 -0.5zM27.5 23h1a0.5 0.5 0 0 1 0.5 0.5a0.5 0.5 0 0 1 -0.5 0.5a0.5 0.5 0 0 0 -0.5 0.5a0.5 0.5 0 0 1 -0.5 0.5a0.5 0.5 0 0 1 -0.5 -0.5v-1a0.5 0.5 0 0 1 0.5 -0.5zM30.5 23h1a0.5 0.5 0 0 1 0.5 0.5a0.5 0.5 0 0 1 -0.5 0.5a0.5 0.5 0 0 0 -0.5 0.5a0.5 0.5 0 0 0 0.5 0.5a0.5 0.5 0 0 1 0.5 0.5a0.5 0.5 0 0 1 -0.5 0.5a0.5 0.5 0 0 0 -0.5 0.5a0.5 0.5 0 0 1 -0.5 0.5a0.5 0.5 0 0 0 -0.5 0.5a0.5 0.5 0 0 0 0.5 0.5a0.5 0.5 0 0 1 0.5 0.5a0.5 0.5 0 0 0 0.5 0.5h1a0.5 0.5 0 0 0 0.5 -0.5a0.5 0.5 0 0 1 0.5 -0.5a0.5 0.5 0 0 1 0.5 0.5v2a0.5 0.5 0 0 0 0.5 0.5a0.5 0.5 0 0 1 0.5 0.5a0.5 0.5 0 0 1 -0.5 0.5a0.5 0.5 0 0 0 -0.5 0.5v2a0.5 0.5 0 0 1 -0.5 0.5a0.5 0.5 0 0 1 -0.5 -0.5a0.5 0.5 0 0 0 -0.5 -0.5a0.5 0.5 0 0 0 -0.5 0.5a0.5 0.5 0 0 1 -0.5 0.5a0.5 0.5 0 0 1 -0.5 -0.5a0.5 0.5 0 0 0 -0.5 -0.5a0.5 0.5 0 0 0 -0.5 0.5a0.5 0.5 0 0 0 0.5 0.5a0.5 0.5 0 0 1 0.5 0.5a0.5 0.5 0 0 1 -0.5 0.5a0.5 0.5 0 0 0 -0.5 0.5a0.5 0.5 0 0 1 -0.5 0.5a0.5 0.5 0 0 1 -0.5 -0.5v-2a0.5 0.5 0 0 0 -0.5 -0.5a0.5 0.5 0 0 1 -0.5 -0.5a0.5 0.5 0 0 1 0.5 -0.5a0.5 0.5 0 0 0 0.5 -0.5v-2a0.5 0.5 0 0 0 -0.5 -0.5a0.5 0.5 0 0 0 -0.5 0.5a0.5 0.5 0 0 1 -0.5 0.5a0.5 0.5 0 0 1 -0.5 -0.5a0.5 0.5 0 0 0 -0.5 -0.5h-1a0.5 0.5 0 0 1 -0.5 -0.5v-1a0.5 0.5 0 0 1 0.5 -0.5a0.5 0.5 0 0 1 0.5 0.5a0.5 0.5 0 0 0 0.5 0.5a0.5 0.5 0 0 0 0.5 -0.5a0.5 0.5 0 0 0 -0.5 -0.5a0.5 0.5 0 0 1 -0.5 -0.5a0.5 0.5 0 0 1 0.5 -0.5h2a0.5 0.5 0 0 0 0.5 -0.5a0.5 0.5 0 0 1 0.5 -0.5a0.5 0.5 0 0 0 0.5 -0.5v-2a0.5 0.5 0 0 1 0.5 -0.5zM17.5 24a0.5 0.5 0 0 1 0.5 0.5a0.5 0.5 0 0 0 0.5 0.5a0.5 0.5 0 0 0 0.5 -0.5a0.5 0.5 0 0 1 0.5 -0.5a0.5 0.5 0 0 1 0.5 0.5a0.5 0.5 0 0 0 0.5 0.5h2a0.5 0.5 0 0 1 0.5 0.5a0.5 0.5 0 0 0 0.5 0.5a0.5 0.5 0 0 1 0.5 0.5v3a0.5 0.5 0 0 1 -0.5 0.5a0.5 0.5 0 0 1 -0.5 -0.5v-1a0.5 0.5 0 0 0 -0.5 -0.5a0.5 0.5 0 0 1 -0.5 -0.5v-1a0.5 0.5 0 0 0 -0.5 -0.5a0.5 0.5 0 0 0 -0.5 0.5a0.5 0.5 0 0 1 -0.5 0.5a0.5 0.5 0 0 0 -0.5 0.5v3a0.5 0.5 0 0 1 -0.5 0.5a0.5 0.5 0 0 1 -0.5 -0.5v-1a0.5 0.5 0 0 0 -0.5 -0.5a0.5 0.5 0 0 0 -0.5 0.5a0.5 0.5 0 0 1 -0.5 0.5a0.5 0.5 0 0 1 -0.5 -0.5v-1a0.5 0.5 0 0 1 0.5 -0.5h1a0.5 0.5 0 0 0 0.5 -0.5a0.5 0.5 0 0 0 -0.5 -0.5h-1a0.5 0.5 0 0 1 -0.5 -0.5v-2a0.5 0.5 0 0 1 0.5 -0.5zM4.5 25h1a0.5 0.5 0 0 1 0.5 0.5a0.5 0.5 0 0 1 -0.5 0.5h-1a0.5 0.5 0 0 1 -0.5 -0.5a0.5 0.5 0 0 1 0.5 -0.5zM1.5 26h1a0.5 0.5 0 0 1 0.5 0.5a0.5 0.5 0 0 1 -0.5 0.5a0.5 0.5 0 0 0 -0.5 0.5v2a0.5 0.5 0 0 1 -0.5 0.5a0.5 0.5 0 0 1 -0.5 -0.5v-3a0.5 0.5 0 0 1 0.5 -0.5zM8.5 26a0.5 0.5 0 0 1 0.5 0.5v1a0.5 0.5 0 0 1 -0.5 0.5h-1a0.5 0.5 0 0 1 -0.5 -0.5a0.5 0.5 0 0 1 0.5 -0.5a0.5 0.5 0 0 0 0.5 -0.5a0.5 0.5 0 0 1 0.5 -0.5zM31.5 27h1a0.5 0.5 0 0 1 0.5 0.5a0.5 0.5 0 0 1 -0.5 0.5h-1a0.5 0.5 0 0 1 -0.5 -0.5a0.5 0.5 0 0 1 0.5 -0.5zM36.5 27h1a0.5 0.5 0 0 1 0.5 0.5a0.5 0.5 0 0 1 -0.5 0.5h-1a0.5 0.5 0 0 1 -0.5 -0.5a0.5 0.5 0 0 1 0.5 -0.5zM3.5 29h1a0.5 0.5 0 0 1 0.5 0.5a0.5 0.5 0 0 1 -0.5 0.5h-1a0.5 0.5 0 0 1 -0.5 -0.5a0.5 0.5 0 0 1 0.5 -0.5zM35.5 29h1a0.5 0.5 0 0 1 0.5 0.5v1a0.5 0.5 0 0 0 0.5 0.5a0.5 0.5 0 0 1 0.5 0.5a0.5 0.5 0 0 1 -0.5 0.5a0.5 0.5 0 0 0 -0.5 0.5a0.5 0.5 0 0 0 0.5 0.5a0.5 0.5 0 0 1 0.5 0.5a0.5 0.5 0 0 1 -0.5 0.5h-2a0.5 0.5 0 0 1 -0.5 -0.5a0.5 0.5 0 0 1 0.5 -0.5a0.5 0.5 0 0 0 0.5 -0.5v-2a0.5 0.5 0 0 0 -0.5 -0.5a0.5 0.5 0 0 1 -0.5 -0.5a0.5 0.5 0 0 1 0.5 -0.5zM30 30.5v2a0.5 0.5 0 0 0 0.5 0.5h2a0.5 0.5 0 0 0 0.5 -0.5v-2a0.5 0.5 0 0 0 -0.5 -0.5h-2a0.5 0.5 0 0 0 -0.5 0.5zM25.5 31h1a0.5 0.5 0 0 1 0.5 0.5a0.5 0.5 0 0 1 -0.5 0.5h-1a0.5 0.5 0 0 1 -0.5 -0.5a0.5 0.5 0 0 1 0.5 -0.5zM11.5 32a0.5 0.5 0 0 1 0.5 0.5a0.5 0.5 0 0 0 0.5 0.5h1a0.5 0.5 0 0 1 0.5 0.5a0.5 0.5 0 0 1 -0.5 0.5h-1a0.5 0.5 0 0 0 -0.5 0.5a0.5 0.5 0 0 1 -0.5 0.5a0.5 0.5 0 0 1 -0.5 -0.5v-2a0.5 0.5 0 0 1 0.5 -0.5zM16.5 32h1a0.5 0.5 0 0 1 0.5 0.5a0.5 0.5 0 0 1 -0.5 0.5h-1a0.5 0.5 0 0 1 -0.5 -0.5a0.5 0.5 0 0 1 0.5 -0.5zM19.5 32a0.5 0.5 0 0 1 0.5 0.5v3a0.5 0.5 0 0 1 -0.5 0.5a0.5 0.5 0 0 1 -0.5 -0.5v-3a0.5 0.5 0 0 1 0.5 -0.5zM22.5 32h1a0.5 0.5 0 0 1 0.5 0.5a0.5 0.5 0 0 0 0.5 0.5h2a0.5 0.5 0 0 1 0.5 0.5a0.5 0.5 0 0 1 -0.5 0.5h-4a0.5 0.5 0 0 1 -0.5 -0.5v-1a0.5 0.5 0 0 1 0.5 -0.5zM9.5 33a0.5 0.5 0 0 1 0.5 0.5v2a0.5 0.5 0 0 1 -0.5 0.5a0.5 0.5 0 0 1 -0.5 -0.5v-2a0.5 0.5 0 0 1 0.5 -0.5zM15.5 35a0.5 0.5 0 0 1 0.5 0.5a0.5 0.5 0 0 0 0.5 0.5a0.5 0.5 0 0 1 0.5 0.5a0.5 0.5 0 0 1 -0.5 0.5a0.5 0.5 0 0 0 -0.5 0.5a0.5 0.5 0 0 1 -0.5 0.5h-1a0.5 0.5 0 0 1 -0.5 -0.5a0.5 0.5 0 0 1 0.5 -0.5a0.5 0.5 0 0 0 0.5 -0.5v-1a0.5 0.5 0 0 1 0.5 -0.5zM24.5 35h3a0.5 0.5 0 0 1 0.5 0.5a0.5 0.5 0 0 1 -0.5 0.5h-2a0.5 0.5 0 0 0 -0.5 0.5a0.5 0.5 0 0 0 0.5 0.5h2a0.5 0.5 0 0 1 0.5 0.5a0.5 0.5 0 0 1 -0.5 0.5h-3a0.5 0.5 0 0 1 -0.5 -0.5v-2a0.5 0.5 0 0 1 0.5 -0.5zM37.5 35a0.5 0.5 0 0 1 0.5 0.5v2a0.5 0.5 0 0 1 -0.5 0.5h-3a0.5 0.5 0 0 1 -0.5 -0.5a0.5 0.5 0 0 1 0.5 -0.5h2a0.5 0.5 0 0 0 0.5 -0.5v-1a0.5 0.5 0 0 1 0.5 -0.5zM32.5 36h1a0.5 0.5 0 0 1 0.5 0.5a0.5 0.5 0 0 1 -0.5 0.5a0.5 0.5 0 0 0 -0.5 0.5a0.5 0.5 0 0 1 -0.5 0.5h-2a0.5 0.5 0 0 1 -0.5 -0.5a0.5 0.5 0 0 1 0.5 -0.5h1a0.5 0.5 0 0 0 0.5 -0.5a0.5 0.5 0 0 1 0.5 -0.5zM17.5 37h5a0.5 0.5 0 0 1 0.5 0.5a0.5 0.5 0 0 1 -0.5 0.5h-5a0.5 0.5 0 0 1 -0.5 -0.5a0.5 0.5 0 0 1 0.5 -0.5z" fill="#000000"></path></svg>